ISO-10303-21;
HEADER;
FILE_DESCRIPTION(('FreeCAD Model'),'2;1');
FILE_NAME('Open CASCADE Shape Model','2026-09-23T15:54:56',('FreeCAD'),(
    'FreeCAD'),'Open CASCADE STEP processor 7.8','FreeCAD','Unknown');
FILE_SCHEMA(('AUTOMOTIVE_DESIGN { 1 0 10303 214 1 1 1 1 }'));
ENDSEC;
DATA;
#1 = APPLICATION_PROTOCOL_DEFINITION('international standard',
  'automotive_design',2000,#2);
#2 = APPLICATION_CONTEXT(
  'core data for automotive mechanical design processes');
#3 = SHAPE_DEFINITION_REPRESENTATION(#4,#10);
#4 = PRODUCT_DEFINITION_SHAPE('','',#5);
#5 = PRODUCT_DEFINITION('design','',#6,#9);
#6 = PRODUCT_DEFINITION_FORMATION('','',#7);
#7 = PRODUCT('Open CASCADE STEP translator 7.8 10',
  'Open CASCADE STEP translator 7.8 10','',(#8));
#8 = PRODUCT_CONTEXT('',#2,'mechanical');
#9 = PRODUCT_DEFINITION_CONTEXT('part definition',#2,'design');
#10 = ADVANCED_BREP_SHAPE_REPRESENTATION('',(#11,#15),#2279);
#11 = AXIS2_PLACEMENT_3D('',#12,#13,#14);
#12 = CARTESIAN_POINT('',(0.,0.,0.));
#13 = DIRECTION('',(0.,0.,1.));
#14 = DIRECTION('',(1.,0.,-0.));
#15 = MANIFOLD_SOLID_BREP('',#16);
#16 = CLOSED_SHELL('',(#17,#57,#88,#183,#214,#313,#344,#375,#520,#560,
    #591,#677,#708,#844,#856,#878,#1014,#1031,#1162,#1193,#1242,#1291,
    #1322,#1353,#1370,#1433,#1450,#1513,#1530,#1593,#1610,#1673,#1690,
    #1753,#1770,#1833,#1845,#1880,#1892,#1927,#1939,#1951,#1963,#2001,
    #2032,#2063,#2075,#2087,#2104,#2121,#2133,#2150,#2167,#2179,#2217,
    #2255,#2267));
#17 = ADVANCED_FACE('',(#18),#52,.F.);
#18 = FACE_BOUND('',#19,.F.);
#19 = EDGE_LOOP('',(#20,#30,#38,#46));
#20 = ORIENTED_EDGE('',*,*,#21,.F.);
#21 = EDGE_CURVE('',#22,#24,#26,.T.);
#22 = VERTEX_POINT('',#23);
#23 = CARTESIAN_POINT('',(0.,-22.,0.));
#24 = VERTEX_POINT('',#25);
#25 = CARTESIAN_POINT('',(0.,-20.3,0.));
#26 = LINE('',#27,#28);
#27 = CARTESIAN_POINT('',(0.,-22.,0.));
#28 = VECTOR('',#29,1.);
#29 = DIRECTION('',(-0.,1.,0.));
#30 = ORIENTED_EDGE('',*,*,#31,.T.);
#31 = EDGE_CURVE('',#22,#32,#34,.T.);
#32 = VERTEX_POINT('',#33);
#33 = CARTESIAN_POINT('',(57.8,-22.,0.));
#34 = LINE('',#35,#36);
#35 = CARTESIAN_POINT('',(0.,-22.,0.));
#36 = VECTOR('',#37,1.);
#37 = DIRECTION('',(1.,0.,-0.));
#38 = ORIENTED_EDGE('',*,*,#39,.T.);
#39 = EDGE_CURVE('',#32,#40,#42,.T.);
#40 = VERTEX_POINT('',#41);
#41 = CARTESIAN_POINT('',(57.8,-20.3,0.));
#42 = LINE('',#43,#44);
#43 = CARTESIAN_POINT('',(57.8,-22.,0.));
#44 = VECTOR('',#45,1.);
#45 = DIRECTION('',(-0.,1.,0.));
#46 = ORIENTED_EDGE('',*,*,#47,.T.);
#47 = EDGE_CURVE('',#40,#24,#48,.T.);
#48 = LINE('',#49,#50);
#49 = CARTESIAN_POINT('',(0.,-20.3,0.));
#50 = VECTOR('',#51,1.);
#51 = DIRECTION('',(-1.,-0.,0.));
#52 = PLANE('',#53);
#53 = AXIS2_PLACEMENT_3D('',#54,#55,#56);
#54 = CARTESIAN_POINT('',(0.,-22.,0.));
#55 = DIRECTION('',(0.,0.,1.));
#56 = DIRECTION('',(1.,0.,-0.));
#57 = ADVANCED_FACE('',(#58),#83,.F.);
#58 = FACE_BOUND('',#59,.F.);
#59 = EDGE_LOOP('',(#60,#61,#69,#77));
#60 = ORIENTED_EDGE('',*,*,#31,.F.);
#61 = ORIENTED_EDGE('',*,*,#62,.T.);
#62 = EDGE_CURVE('',#22,#63,#65,.T.);
#63 = VERTEX_POINT('',#64);
#64 = CARTESIAN_POINT('',(0.,-22.,4.));
#65 = LINE('',#66,#67);
#66 = CARTESIAN_POINT('',(0.,-22.,0.));
#67 = VECTOR('',#68,1.);
#68 = DIRECTION('',(0.,0.,1.));
#69 = ORIENTED_EDGE('',*,*,#70,.T.);
#70 = EDGE_CURVE('',#63,#71,#73,.T.);
#71 = VERTEX_POINT('',#72);
#72 = CARTESIAN_POINT('',(57.8,-22.,4.));
#73 = LINE('',#74,#75);
#74 = CARTESIAN_POINT('',(0.,-22.,4.));
#75 = VECTOR('',#76,1.);
#76 = DIRECTION('',(1.,0.,-0.));
#77 = ORIENTED_EDGE('',*,*,#78,.F.);
#78 = EDGE_CURVE('',#32,#71,#79,.T.);
#79 = LINE('',#80,#81);
#80 = CARTESIAN_POINT('',(57.8,-22.,0.));
#81 = VECTOR('',#82,1.);
#82 = DIRECTION('',(0.,0.,1.));
#83 = PLANE('',#84);
#84 = AXIS2_PLACEMENT_3D('',#85,#86,#87);
#85 = CARTESIAN_POINT('',(0.,-22.,0.));
#86 = DIRECTION('',(-0.,1.,0.));
#87 = DIRECTION('',(0.,0.,1.));
#88 = ADVANCED_FACE('',(#89),#178,.T.);
#89 = FACE_BOUND('',#90,.T.);
#90 = EDGE_LOOP('',(#91,#99,#100,#108,#116,#124,#132,#140,#148,#156,#164
    ,#172));
#91 = ORIENTED_EDGE('',*,*,#92,.F.);
#92 = EDGE_CURVE('',#63,#93,#95,.T.);
#93 = VERTEX_POINT('',#94);
#94 = CARTESIAN_POINT('',(0.,-15.7,4.));
#95 = LINE('',#96,#97);
#96 = CARTESIAN_POINT('',(0.,-22.,4.));
#97 = VECTOR('',#98,1.);
#98 = DIRECTION('',(-0.,1.,0.));
#99 = ORIENTED_EDGE('',*,*,#70,.T.);
#100 = ORIENTED_EDGE('',*,*,#101,.T.);
#101 = EDGE_CURVE('',#71,#102,#104,.T.);
#102 = VERTEX_POINT('',#103);
#103 = CARTESIAN_POINT('',(57.8,-15.7,4.));
#104 = LINE('',#105,#106);
#105 = CARTESIAN_POINT('',(57.8,-22.,4.));
#106 = VECTOR('',#107,1.);
#107 = DIRECTION('',(-0.,1.,0.));
#108 = ORIENTED_EDGE('',*,*,#109,.T.);
#109 = EDGE_CURVE('',#102,#110,#112,.T.);
#110 = VERTEX_POINT('',#111);
#111 = CARTESIAN_POINT('',(43.85,-15.7,4.));
#112 = LINE('',#113,#114);
#113 = CARTESIAN_POINT('',(0.,-15.7,4.));
#114 = VECTOR('',#115,1.);
#115 = DIRECTION('',(-1.,-0.,0.));
#116 = ORIENTED_EDGE('',*,*,#117,.F.);
#117 = EDGE_CURVE('',#118,#110,#120,.T.);
#118 = VERTEX_POINT('',#119);
#119 = CARTESIAN_POINT('',(43.85,-16.,4.));
#120 = LINE('',#121,#122);
#121 = CARTESIAN_POINT('',(43.85,-19.,4.));
#122 = VECTOR('',#123,1.);
#123 = DIRECTION('',(-0.,1.,0.));
#124 = ORIENTED_EDGE('',*,*,#125,.T.);
#125 = EDGE_CURVE('',#118,#126,#128,.T.);
#126 = VERTEX_POINT('',#127);
#127 = CARTESIAN_POINT('',(39.85,-16.,4.));
#128 = LINE('',#129,#130);
#129 = CARTESIAN_POINT('',(19.925,-16.,4.));
#130 = VECTOR('',#131,1.);
#131 = DIRECTION('',(-1.,-0.,0.));
#132 = ORIENTED_EDGE('',*,*,#133,.T.);
#133 = EDGE_CURVE('',#126,#134,#136,.T.);
#134 = VERTEX_POINT('',#135);
#135 = CARTESIAN_POINT('',(39.85,-15.7,4.));
#136 = LINE('',#137,#138);
#137 = CARTESIAN_POINT('',(39.85,-19.,4.));
#138 = VECTOR('',#139,1.);
#139 = DIRECTION('',(-0.,1.,0.));
#140 = ORIENTED_EDGE('',*,*,#141,.T.);
#141 = EDGE_CURVE('',#134,#142,#144,.T.);
#142 = VERTEX_POINT('',#143);
#143 = CARTESIAN_POINT('',(17.95,-15.7,4.));
#144 = LINE('',#145,#146);
#145 = CARTESIAN_POINT('',(0.,-15.7,4.));
#146 = VECTOR('',#147,1.);
#147 = DIRECTION('',(-1.,-0.,0.));
#148 = ORIENTED_EDGE('',*,*,#149,.F.);
#149 = EDGE_CURVE('',#150,#142,#152,.T.);
#150 = VERTEX_POINT('',#151);
#151 = CARTESIAN_POINT('',(17.95,-16.,4.));
#152 = LINE('',#153,#154);
#153 = CARTESIAN_POINT('',(17.95,-19.,4.));
#154 = VECTOR('',#155,1.);
#155 = DIRECTION('',(-0.,1.,0.));
#156 = ORIENTED_EDGE('',*,*,#157,.T.);
#157 = EDGE_CURVE('',#150,#158,#160,.T.);
#158 = VERTEX_POINT('',#159);
#159 = CARTESIAN_POINT('',(13.95,-16.,4.));
#160 = LINE('',#161,#162);
#161 = CARTESIAN_POINT('',(6.975,-16.,4.));
#162 = VECTOR('',#163,1.);
#163 = DIRECTION('',(-1.,-0.,0.));
#164 = ORIENTED_EDGE('',*,*,#165,.T.);
#165 = EDGE_CURVE('',#158,#166,#168,.T.);
#166 = VERTEX_POINT('',#167);
#167 = CARTESIAN_POINT('',(13.95,-15.7,4.));
#168 = LINE('',#169,#170);
#169 = CARTESIAN_POINT('',(13.95,-19.,4.));
#170 = VECTOR('',#171,1.);
#171 = DIRECTION('',(-0.,1.,0.));
#172 = ORIENTED_EDGE('',*,*,#173,.T.);
#173 = EDGE_CURVE('',#166,#93,#174,.T.);
#174 = LINE('',#175,#176);
#175 = CARTESIAN_POINT('',(0.,-15.7,4.));
#176 = VECTOR('',#177,1.);
#177 = DIRECTION('',(-1.,-0.,0.));
#178 = PLANE('',#179);
#179 = AXIS2_PLACEMENT_3D('',#180,#181,#182);
#180 = CARTESIAN_POINT('',(0.,-22.,4.));
#181 = DIRECTION('',(0.,0.,1.));
#182 = DIRECTION('',(1.,0.,-0.));
#183 = ADVANCED_FACE('',(#184),#209,.T.);
#184 = FACE_BOUND('',#185,.T.);
#185 = EDGE_LOOP('',(#186,#194,#202,#208));
#186 = ORIENTED_EDGE('',*,*,#187,.F.);
#187 = EDGE_CURVE('',#188,#150,#190,.T.);
#188 = VERTEX_POINT('',#189);
#189 = CARTESIAN_POINT('',(17.95,-16.,0.));
#190 = LINE('',#191,#192);
#191 = CARTESIAN_POINT('',(17.95,-16.,-1.));
#192 = VECTOR('',#193,1.);
#193 = DIRECTION('',(0.,0.,1.));
#194 = ORIENTED_EDGE('',*,*,#195,.T.);
#195 = EDGE_CURVE('',#188,#196,#198,.T.);
#196 = VERTEX_POINT('',#197);
#197 = CARTESIAN_POINT('',(13.95,-16.,0.));
#198 = LINE('',#199,#200);
#199 = CARTESIAN_POINT('',(6.975,-16.,0.));
#200 = VECTOR('',#201,1.);
#201 = DIRECTION('',(-1.,-0.,0.));
#202 = ORIENTED_EDGE('',*,*,#203,.T.);
#203 = EDGE_CURVE('',#196,#158,#204,.T.);
#204 = LINE('',#205,#206);
#205 = CARTESIAN_POINT('',(13.95,-16.,-1.));
#206 = VECTOR('',#207,1.);
#207 = DIRECTION('',(0.,0.,1.));
#208 = ORIENTED_EDGE('',*,*,#157,.F.);
#209 = PLANE('',#210);
#210 = AXIS2_PLACEMENT_3D('',#211,#212,#213);
#211 = CARTESIAN_POINT('',(13.95,-16.,-1.));
#212 = DIRECTION('',(-0.,1.,0.));
#213 = DIRECTION('',(0.,0.,1.));
#214 = ADVANCED_FACE('',(#215,#249,#274),#308,.F.);
#215 = FACE_BOUND('',#216,.F.);
#216 = EDGE_LOOP('',(#217,#227,#235,#243));
#217 = ORIENTED_EDGE('',*,*,#218,.F.);
#218 = EDGE_CURVE('',#219,#221,#223,.T.);
#219 = VERTEX_POINT('',#220);
#220 = CARTESIAN_POINT('',(0.,-17.8,0.));
#221 = VERTEX_POINT('',#222);
#222 = CARTESIAN_POINT('',(0.,17.8,0.));
#223 = LINE('',#224,#225);
#224 = CARTESIAN_POINT('',(0.,-22.,0.));
#225 = VECTOR('',#226,1.);
#226 = DIRECTION('',(-0.,1.,0.));
#227 = ORIENTED_EDGE('',*,*,#228,.F.);
#228 = EDGE_CURVE('',#229,#219,#231,.T.);
#229 = VERTEX_POINT('',#230);
#230 = CARTESIAN_POINT('',(57.8,-17.8,0.));
#231 = LINE('',#232,#233);
#232 = CARTESIAN_POINT('',(0.,-17.8,0.));
#233 = VECTOR('',#234,1.);
#234 = DIRECTION('',(-1.,-0.,0.));
#235 = ORIENTED_EDGE('',*,*,#236,.T.);
#236 = EDGE_CURVE('',#229,#237,#239,.T.);
#237 = VERTEX_POINT('',#238);
#238 = CARTESIAN_POINT('',(57.8,17.8,0.));
#239 = LINE('',#240,#241);
#240 = CARTESIAN_POINT('',(57.8,-22.,0.));
#241 = VECTOR('',#242,1.);
#242 = DIRECTION('',(-0.,1.,0.));
#243 = ORIENTED_EDGE('',*,*,#244,.T.);
#244 = EDGE_CURVE('',#237,#221,#245,.T.);
#245 = LINE('',#246,#247);
#246 = CARTESIAN_POINT('',(0.,17.8,0.));
#247 = VECTOR('',#248,1.);
#248 = DIRECTION('',(-1.,-0.,0.));
#249 = FACE_BOUND('',#250,.F.);
#250 = EDGE_LOOP('',(#251,#252,#260,#268));
#251 = ORIENTED_EDGE('',*,*,#195,.T.);
#252 = ORIENTED_EDGE('',*,*,#253,.T.);
#253 = EDGE_CURVE('',#196,#254,#256,.T.);
#254 = VERTEX_POINT('',#255);
#255 = CARTESIAN_POINT('',(13.95,16.,0.));
#256 = LINE('',#257,#258);
#257 = CARTESIAN_POINT('',(13.95,-19.,0.));
#258 = VECTOR('',#259,1.);
#259 = DIRECTION('',(-0.,1.,0.));
#260 = ORIENTED_EDGE('',*,*,#261,.F.);
#261 = EDGE_CURVE('',#262,#254,#264,.T.);
#262 = VERTEX_POINT('',#263);
#263 = CARTESIAN_POINT('',(17.95,16.,0.));
#264 = LINE('',#265,#266);
#265 = CARTESIAN_POINT('',(6.975,16.,0.));
#266 = VECTOR('',#267,1.);
#267 = DIRECTION('',(-1.,-0.,0.));
#268 = ORIENTED_EDGE('',*,*,#269,.F.);
#269 = EDGE_CURVE('',#188,#262,#270,.T.);
#270 = LINE('',#271,#272);
#271 = CARTESIAN_POINT('',(17.95,-19.,0.));
#272 = VECTOR('',#273,1.);
#273 = DIRECTION('',(-0.,1.,0.));
#274 = FACE_BOUND('',#275,.F.);
#275 = EDGE_LOOP('',(#276,#286,#294,#302));
#276 = ORIENTED_EDGE('',*,*,#277,.T.);
#277 = EDGE_CURVE('',#278,#280,#282,.T.);
#278 = VERTEX_POINT('',#279);
#279 = CARTESIAN_POINT('',(43.85,-16.,0.));
#280 = VERTEX_POINT('',#281);
#281 = CARTESIAN_POINT('',(39.85,-16.,0.));
#282 = LINE('',#283,#284);
#283 = CARTESIAN_POINT('',(19.925,-16.,0.));
#284 = VECTOR('',#285,1.);
#285 = DIRECTION('',(-1.,-0.,0.));
#286 = ORIENTED_EDGE('',*,*,#287,.T.);
#287 = EDGE_CURVE('',#280,#288,#290,.T.);
#288 = VERTEX_POINT('',#289);
#289 = CARTESIAN_POINT('',(39.85,16.,0.));
#290 = LINE('',#291,#292);
#291 = CARTESIAN_POINT('',(39.85,-19.,0.));
#292 = VECTOR('',#293,1.);
#293 = DIRECTION('',(-0.,1.,0.));
#294 = ORIENTED_EDGE('',*,*,#295,.F.);
#295 = EDGE_CURVE('',#296,#288,#298,.T.);
#296 = VERTEX_POINT('',#297);
#297 = CARTESIAN_POINT('',(43.85,16.,0.));
#298 = LINE('',#299,#300);
#299 = CARTESIAN_POINT('',(19.925,16.,0.));
#300 = VECTOR('',#301,1.);
#301 = DIRECTION('',(-1.,-0.,0.));
#302 = ORIENTED_EDGE('',*,*,#303,.F.);
#303 = EDGE_CURVE('',#278,#296,#304,.T.);
#304 = LINE('',#305,#306);
#305 = CARTESIAN_POINT('',(43.85,-19.,0.));
#306 = VECTOR('',#307,1.);
#307 = DIRECTION('',(-0.,1.,0.));
#308 = PLANE('',#309);
#309 = AXIS2_PLACEMENT_3D('',#310,#311,#312);
#310 = CARTESIAN_POINT('',(0.,-22.,0.));
#311 = DIRECTION('',(0.,0.,1.));
#312 = DIRECTION('',(1.,0.,-0.));
#313 = ADVANCED_FACE('',(#314),#339,.T.);
#314 = FACE_BOUND('',#315,.T.);
#315 = EDGE_LOOP('',(#316,#324,#332,#338));
#316 = ORIENTED_EDGE('',*,*,#317,.F.);
#317 = EDGE_CURVE('',#318,#229,#320,.T.);
#318 = VERTEX_POINT('',#319);
#319 = CARTESIAN_POINT('',(57.8,-17.8,-1.3));
#320 = LINE('',#321,#322);
#321 = CARTESIAN_POINT('',(57.8,-17.8,-3.3));
#322 = VECTOR('',#323,1.);
#323 = DIRECTION('',(0.,0.,1.));
#324 = ORIENTED_EDGE('',*,*,#325,.F.);
#325 = EDGE_CURVE('',#326,#318,#328,.T.);
#326 = VERTEX_POINT('',#327);
#327 = CARTESIAN_POINT('',(0.,-17.8,-1.3));
#328 = LINE('',#329,#330);
#329 = CARTESIAN_POINT('',(0.,-17.8,-1.3));
#330 = VECTOR('',#331,1.);
#331 = DIRECTION('',(1.,0.,-0.));
#332 = ORIENTED_EDGE('',*,*,#333,.T.);
#333 = EDGE_CURVE('',#326,#219,#334,.T.);
#334 = LINE('',#335,#336);
#335 = CARTESIAN_POINT('',(0.,-17.8,-3.3));
#336 = VECTOR('',#337,1.);
#337 = DIRECTION('',(0.,0.,1.));
#338 = ORIENTED_EDGE('',*,*,#228,.F.);
#339 = PLANE('',#340);
#340 = AXIS2_PLACEMENT_3D('',#341,#342,#343);
#341 = CARTESIAN_POINT('',(0.,-17.8,-3.3));
#342 = DIRECTION('',(-0.,1.,0.));
#343 = DIRECTION('',(0.,0.,1.));
#344 = ADVANCED_FACE('',(#345),#370,.F.);
#345 = FACE_BOUND('',#346,.F.);
#346 = EDGE_LOOP('',(#347,#355,#363,#369));
#347 = ORIENTED_EDGE('',*,*,#348,.F.);
#348 = EDGE_CURVE('',#349,#237,#351,.T.);
#349 = VERTEX_POINT('',#350);
#350 = CARTESIAN_POINT('',(57.8,17.8,-1.3));
#351 = LINE('',#352,#353);
#352 = CARTESIAN_POINT('',(57.8,17.8,-3.3));
#353 = VECTOR('',#354,1.);
#354 = DIRECTION('',(0.,0.,1.));
#355 = ORIENTED_EDGE('',*,*,#356,.F.);
#356 = EDGE_CURVE('',#357,#349,#359,.T.);
#357 = VERTEX_POINT('',#358);
#358 = CARTESIAN_POINT('',(0.,17.8,-1.3));
#359 = LINE('',#360,#361);
#360 = CARTESIAN_POINT('',(0.,17.8,-1.3));
#361 = VECTOR('',#362,1.);
#362 = DIRECTION('',(1.,0.,-0.));
#363 = ORIENTED_EDGE('',*,*,#364,.T.);
#364 = EDGE_CURVE('',#357,#221,#365,.T.);
#365 = LINE('',#366,#367);
#366 = CARTESIAN_POINT('',(0.,17.8,-3.3));
#367 = VECTOR('',#368,1.);
#368 = DIRECTION('',(0.,0.,1.));
#369 = ORIENTED_EDGE('',*,*,#244,.F.);
#370 = PLANE('',#371);
#371 = AXIS2_PLACEMENT_3D('',#372,#373,#374);
#372 = CARTESIAN_POINT('',(0.,17.8,-3.3));
#373 = DIRECTION('',(-0.,1.,0.));
#374 = DIRECTION('',(0.,0.,1.));
#375 = ADVANCED_FACE('',(#376),#515,.F.);
#376 = FACE_BOUND('',#377,.F.);
#377 = EDGE_LOOP('',(#378,#379,#380,#388,#396,#404,#412,#420,#428,#436,
    #444,#452,#460,#468,#476,#484,#492,#500,#508,#514));
#378 = ORIENTED_EDGE('',*,*,#187,.F.);
#379 = ORIENTED_EDGE('',*,*,#269,.T.);
#380 = ORIENTED_EDGE('',*,*,#381,.T.);
#381 = EDGE_CURVE('',#262,#382,#384,.T.);
#382 = VERTEX_POINT('',#383);
#383 = CARTESIAN_POINT('',(17.95,16.,4.));
#384 = LINE('',#385,#386);
#385 = CARTESIAN_POINT('',(17.95,16.,-1.));
#386 = VECTOR('',#387,1.);
#387 = DIRECTION('',(0.,0.,1.));
#388 = ORIENTED_EDGE('',*,*,#389,.F.);
#389 = EDGE_CURVE('',#390,#382,#392,.T.);
#390 = VERTEX_POINT('',#391);
#391 = CARTESIAN_POINT('',(17.95,15.7,4.));
#392 = LINE('',#393,#394);
#393 = CARTESIAN_POINT('',(17.95,-19.,4.));
#394 = VECTOR('',#395,1.);
#395 = DIRECTION('',(-0.,1.,0.));
#396 = ORIENTED_EDGE('',*,*,#397,.F.);
#397 = EDGE_CURVE('',#398,#390,#400,.T.);
#398 = VERTEX_POINT('',#399);
#399 = CARTESIAN_POINT('',(17.95,15.7,5.));
#400 = LINE('',#401,#402);
#401 = CARTESIAN_POINT('',(17.95,15.7,1.495));
#402 = VECTOR('',#403,1.);
#403 = DIRECTION('',(-0.,0.,-1.));
#404 = ORIENTED_EDGE('',*,*,#405,.F.);
#405 = EDGE_CURVE('',#406,#398,#408,.T.);
#406 = VERTEX_POINT('',#407);
#407 = CARTESIAN_POINT('',(17.95,13.2,5.));
#408 = LINE('',#409,#410);
#409 = CARTESIAN_POINT('',(17.95,-16.,5.));
#410 = VECTOR('',#411,1.);
#411 = DIRECTION('',(-0.,1.,0.));
#412 = ORIENTED_EDGE('',*,*,#413,.T.);
#413 = EDGE_CURVE('',#406,#414,#416,.T.);
#414 = VERTEX_POINT('',#415);
#415 = CARTESIAN_POINT('',(17.95,13.2,4.));
#416 = LINE('',#417,#418);
#417 = CARTESIAN_POINT('',(17.95,13.2,1.5));
#418 = VECTOR('',#419,1.);
#419 = DIRECTION('',(-0.,0.,-1.));
#420 = ORIENTED_EDGE('',*,*,#421,.F.);
#421 = EDGE_CURVE('',#422,#414,#424,.T.);
#422 = VERTEX_POINT('',#423);
#423 = CARTESIAN_POINT('',(17.95,6.08,4.));
#424 = LINE('',#425,#426);
#425 = CARTESIAN_POINT('',(17.95,-19.,4.));
#426 = VECTOR('',#427,1.);
#427 = DIRECTION('',(-0.,1.,0.));
#428 = ORIENTED_EDGE('',*,*,#429,.F.);
#429 = EDGE_CURVE('',#430,#422,#432,.T.);
#430 = VERTEX_POINT('',#431);
#431 = CARTESIAN_POINT('',(17.95,6.08,5.));
#432 = LINE('',#433,#434);
#433 = CARTESIAN_POINT('',(17.95,6.08,1.5));
#434 = VECTOR('',#435,1.);
#435 = DIRECTION('',(-0.,0.,-1.));
#436 = ORIENTED_EDGE('',*,*,#437,.F.);
#437 = EDGE_CURVE('',#438,#430,#440,.T.);
#438 = VERTEX_POINT('',#439);
#439 = CARTESIAN_POINT('',(17.95,4.08,5.));
#440 = LINE('',#441,#442);
#441 = CARTESIAN_POINT('',(17.95,-16.,5.));
#442 = VECTOR('',#443,1.);
#443 = DIRECTION('',(-0.,1.,0.));
#444 = ORIENTED_EDGE('',*,*,#445,.T.);
#445 = EDGE_CURVE('',#438,#446,#448,.T.);
#446 = VERTEX_POINT('',#447);
#447 = CARTESIAN_POINT('',(17.95,4.08,4.));
#448 = LINE('',#449,#450);
#449 = CARTESIAN_POINT('',(17.95,4.08,1.5));
#450 = VECTOR('',#451,1.);
#451 = DIRECTION('',(-0.,0.,-1.));
#452 = ORIENTED_EDGE('',*,*,#453,.F.);
#453 = EDGE_CURVE('',#454,#446,#456,.T.);
#454 = VERTEX_POINT('',#455);
#455 = CARTESIAN_POINT('',(17.95,-4.08,4.));
#456 = LINE('',#457,#458);
#457 = CARTESIAN_POINT('',(17.95,-19.,4.));
#458 = VECTOR('',#459,1.);
#459 = DIRECTION('',(-0.,1.,0.));
#460 = ORIENTED_EDGE('',*,*,#461,.F.);
#461 = EDGE_CURVE('',#462,#454,#464,.T.);
#462 = VERTEX_POINT('',#463);
#463 = CARTESIAN_POINT('',(17.95,-4.08,5.));
#464 = LINE('',#465,#466);
#465 = CARTESIAN_POINT('',(17.95,-4.08,1.5));
#466 = VECTOR('',#467,1.);
#467 = DIRECTION('',(-0.,0.,-1.));
#468 = ORIENTED_EDGE('',*,*,#469,.F.);
#469 = EDGE_CURVE('',#470,#462,#472,.T.);
#470 = VERTEX_POINT('',#471);
#471 = CARTESIAN_POINT('',(17.95,-6.08,5.));
#472 = LINE('',#473,#474);
#473 = CARTESIAN_POINT('',(17.95,-16.,5.));
#474 = VECTOR('',#475,1.);
#475 = DIRECTION('',(-0.,1.,0.));
#476 = ORIENTED_EDGE('',*,*,#477,.T.);
#477 = EDGE_CURVE('',#470,#478,#480,.T.);
#478 = VERTEX_POINT('',#479);
#479 = CARTESIAN_POINT('',(17.95,-6.08,4.));
#480 = LINE('',#481,#482);
#481 = CARTESIAN_POINT('',(17.95,-6.08,1.5));
#482 = VECTOR('',#483,1.);
#483 = DIRECTION('',(-0.,0.,-1.));
#484 = ORIENTED_EDGE('',*,*,#485,.F.);
#485 = EDGE_CURVE('',#486,#478,#488,.T.);
#486 = VERTEX_POINT('',#487);
#487 = CARTESIAN_POINT('',(17.95,-13.2,4.));
#488 = LINE('',#489,#490);
#489 = CARTESIAN_POINT('',(17.95,-19.,4.));
#490 = VECTOR('',#491,1.);
#491 = DIRECTION('',(-0.,1.,0.));
#492 = ORIENTED_EDGE('',*,*,#493,.F.);
#493 = EDGE_CURVE('',#494,#486,#496,.T.);
#494 = VERTEX_POINT('',#495);
#495 = CARTESIAN_POINT('',(17.95,-13.2,5.));
#496 = LINE('',#497,#498);
#497 = CARTESIAN_POINT('',(17.95,-13.2,1.5));
#498 = VECTOR('',#499,1.);
#499 = DIRECTION('',(-0.,0.,-1.));
#500 = ORIENTED_EDGE('',*,*,#501,.F.);
#501 = EDGE_CURVE('',#502,#494,#504,.T.);
#502 = VERTEX_POINT('',#503);
#503 = CARTESIAN_POINT('',(17.95,-15.7,5.));
#504 = LINE('',#505,#506);
#505 = CARTESIAN_POINT('',(17.95,-16.,5.));
#506 = VECTOR('',#507,1.);
#507 = DIRECTION('',(-0.,1.,0.));
#508 = ORIENTED_EDGE('',*,*,#509,.T.);
#509 = EDGE_CURVE('',#502,#142,#510,.T.);
#510 = LINE('',#511,#512);
#511 = CARTESIAN_POINT('',(17.95,-15.7,1.495));
#512 = VECTOR('',#513,1.);
#513 = DIRECTION('',(-0.,0.,-1.));
#514 = ORIENTED_EDGE('',*,*,#149,.F.);
#515 = PLANE('',#516);
#516 = AXIS2_PLACEMENT_3D('',#517,#518,#519);
#517 = CARTESIAN_POINT('',(17.95,-16.,-1.));
#518 = DIRECTION('',(1.,0.,-0.));
#519 = DIRECTION('',(0.,0.,1.));
#520 = ADVANCED_FACE('',(#521),#555,.T.);
#521 = FACE_BOUND('',#522,.T.);
#522 = EDGE_LOOP('',(#523,#533,#541,#549));
#523 = ORIENTED_EDGE('',*,*,#524,.F.);
#524 = EDGE_CURVE('',#525,#527,#529,.T.);
#525 = VERTEX_POINT('',#526);
#526 = CARTESIAN_POINT('',(0.,22.,0.));
#527 = VERTEX_POINT('',#528);
#528 = CARTESIAN_POINT('',(57.8,22.,0.));
#529 = LINE('',#530,#531);
#530 = CARTESIAN_POINT('',(0.,22.,0.));
#531 = VECTOR('',#532,1.);
#532 = DIRECTION('',(1.,0.,-0.));
#533 = ORIENTED_EDGE('',*,*,#534,.T.);
#534 = EDGE_CURVE('',#525,#535,#537,.T.);
#535 = VERTEX_POINT('',#536);
#536 = CARTESIAN_POINT('',(0.,22.,4.));
#537 = LINE('',#538,#539);
#538 = CARTESIAN_POINT('',(0.,22.,0.));
#539 = VECTOR('',#540,1.);
#540 = DIRECTION('',(0.,0.,1.));
#541 = ORIENTED_EDGE('',*,*,#542,.T.);
#542 = EDGE_CURVE('',#535,#543,#545,.T.);
#543 = VERTEX_POINT('',#544);
#544 = CARTESIAN_POINT('',(57.8,22.,4.));
#545 = LINE('',#546,#547);
#546 = CARTESIAN_POINT('',(0.,22.,4.));
#547 = VECTOR('',#548,1.);
#548 = DIRECTION('',(1.,0.,-0.));
#549 = ORIENTED_EDGE('',*,*,#550,.F.);
#550 = EDGE_CURVE('',#527,#543,#551,.T.);
#551 = LINE('',#552,#553);
#552 = CARTESIAN_POINT('',(57.8,22.,0.));
#553 = VECTOR('',#554,1.);
#554 = DIRECTION('',(0.,0.,1.));
#555 = PLANE('',#556);
#556 = AXIS2_PLACEMENT_3D('',#557,#558,#559);
#557 = CARTESIAN_POINT('',(0.,22.,0.));
#558 = DIRECTION('',(-0.,1.,0.));
#559 = DIRECTION('',(0.,0.,1.));
#560 = ADVANCED_FACE('',(#561),#586,.F.);
#561 = FACE_BOUND('',#562,.F.);
#562 = EDGE_LOOP('',(#563,#571,#579,#585));
#563 = ORIENTED_EDGE('',*,*,#564,.F.);
#564 = EDGE_CURVE('',#565,#525,#567,.T.);
#565 = VERTEX_POINT('',#566);
#566 = CARTESIAN_POINT('',(0.,20.3,0.));
#567 = LINE('',#568,#569);
#568 = CARTESIAN_POINT('',(0.,-22.,0.));
#569 = VECTOR('',#570,1.);
#570 = DIRECTION('',(-0.,1.,0.));
#571 = ORIENTED_EDGE('',*,*,#572,.F.);
#572 = EDGE_CURVE('',#573,#565,#575,.T.);
#573 = VERTEX_POINT('',#574);
#574 = CARTESIAN_POINT('',(57.8,20.3,0.));
#575 = LINE('',#576,#577);
#576 = CARTESIAN_POINT('',(0.,20.3,0.));
#577 = VECTOR('',#578,1.);
#578 = DIRECTION('',(-1.,-0.,0.));
#579 = ORIENTED_EDGE('',*,*,#580,.T.);
#580 = EDGE_CURVE('',#573,#527,#581,.T.);
#581 = LINE('',#582,#583);
#582 = CARTESIAN_POINT('',(57.8,-22.,0.));
#583 = VECTOR('',#584,1.);
#584 = DIRECTION('',(-0.,1.,0.));
#585 = ORIENTED_EDGE('',*,*,#524,.F.);
#586 = PLANE('',#587);
#587 = AXIS2_PLACEMENT_3D('',#588,#589,#590);
#588 = CARTESIAN_POINT('',(0.,-22.,0.));
#589 = DIRECTION('',(0.,0.,1.));
#590 = DIRECTION('',(1.,0.,-0.));
#591 = ADVANCED_FACE('',(#592),#672,.T.);
#592 = FACE_BOUND('',#593,.T.);
#593 = EDGE_LOOP('',(#594,#602,#610,#618,#624,#625,#633,#641,#649,#657,
    #665,#671));
#594 = ORIENTED_EDGE('',*,*,#595,.F.);
#595 = EDGE_CURVE('',#596,#535,#598,.T.);
#596 = VERTEX_POINT('',#597);
#597 = CARTESIAN_POINT('',(0.,15.7,4.));
#598 = LINE('',#599,#600);
#599 = CARTESIAN_POINT('',(0.,-22.,4.));
#600 = VECTOR('',#601,1.);
#601 = DIRECTION('',(-0.,1.,0.));
#602 = ORIENTED_EDGE('',*,*,#603,.F.);
#603 = EDGE_CURVE('',#604,#596,#606,.T.);
#604 = VERTEX_POINT('',#605);
#605 = CARTESIAN_POINT('',(13.95,15.7,4.));
#606 = LINE('',#607,#608);
#607 = CARTESIAN_POINT('',(0.,15.7,4.));
#608 = VECTOR('',#609,1.);
#609 = DIRECTION('',(-1.,-0.,0.));
#610 = ORIENTED_EDGE('',*,*,#611,.T.);
#611 = EDGE_CURVE('',#604,#612,#614,.T.);
#612 = VERTEX_POINT('',#613);
#613 = CARTESIAN_POINT('',(13.95,16.,4.));
#614 = LINE('',#615,#616);
#615 = CARTESIAN_POINT('',(13.95,-19.,4.));
#616 = VECTOR('',#617,1.);
#617 = DIRECTION('',(-0.,1.,0.));
#618 = ORIENTED_EDGE('',*,*,#619,.F.);
#619 = EDGE_CURVE('',#382,#612,#620,.T.);
#620 = LINE('',#621,#622);
#621 = CARTESIAN_POINT('',(6.975,16.,4.));
#622 = VECTOR('',#623,1.);
#623 = DIRECTION('',(-1.,-0.,0.));
#624 = ORIENTED_EDGE('',*,*,#389,.F.);
#625 = ORIENTED_EDGE('',*,*,#626,.F.);
#626 = EDGE_CURVE('',#627,#390,#629,.T.);
#627 = VERTEX_POINT('',#628);
#628 = CARTESIAN_POINT('',(39.85,15.7,4.));
#629 = LINE('',#630,#631);
#630 = CARTESIAN_POINT('',(0.,15.7,4.));
#631 = VECTOR('',#632,1.);
#632 = DIRECTION('',(-1.,-0.,0.));
#633 = ORIENTED_EDGE('',*,*,#634,.T.);
#634 = EDGE_CURVE('',#627,#635,#637,.T.);
#635 = VERTEX_POINT('',#636);
#636 = CARTESIAN_POINT('',(39.85,16.,4.));
#637 = LINE('',#638,#639);
#638 = CARTESIAN_POINT('',(39.85,-19.,4.));
#639 = VECTOR('',#640,1.);
#640 = DIRECTION('',(-0.,1.,0.));
#641 = ORIENTED_EDGE('',*,*,#642,.F.);
#642 = EDGE_CURVE('',#643,#635,#645,.T.);
#643 = VERTEX_POINT('',#644);
#644 = CARTESIAN_POINT('',(43.85,16.,4.));
#645 = LINE('',#646,#647);
#646 = CARTESIAN_POINT('',(19.925,16.,4.));
#647 = VECTOR('',#648,1.);
#648 = DIRECTION('',(-1.,-0.,0.));
#649 = ORIENTED_EDGE('',*,*,#650,.F.);
#650 = EDGE_CURVE('',#651,#643,#653,.T.);
#651 = VERTEX_POINT('',#652);
#652 = CARTESIAN_POINT('',(43.85,15.7,4.));
#653 = LINE('',#654,#655);
#654 = CARTESIAN_POINT('',(43.85,-19.,4.));
#655 = VECTOR('',#656,1.);
#656 = DIRECTION('',(-0.,1.,0.));
#657 = ORIENTED_EDGE('',*,*,#658,.F.);
#658 = EDGE_CURVE('',#659,#651,#661,.T.);
#659 = VERTEX_POINT('',#660);
#660 = CARTESIAN_POINT('',(57.8,15.7,4.));
#661 = LINE('',#662,#663);
#662 = CARTESIAN_POINT('',(0.,15.7,4.));
#663 = VECTOR('',#664,1.);
#664 = DIRECTION('',(-1.,-0.,0.));
#665 = ORIENTED_EDGE('',*,*,#666,.T.);
#666 = EDGE_CURVE('',#659,#543,#667,.T.);
#667 = LINE('',#668,#669);
#668 = CARTESIAN_POINT('',(57.8,-22.,4.));
#669 = VECTOR('',#670,1.);
#670 = DIRECTION('',(-0.,1.,0.));
#671 = ORIENTED_EDGE('',*,*,#542,.F.);
#672 = PLANE('',#673);
#673 = AXIS2_PLACEMENT_3D('',#674,#675,#676);
#674 = CARTESIAN_POINT('',(0.,-22.,4.));
#675 = DIRECTION('',(0.,0.,1.));
#676 = DIRECTION('',(1.,0.,-0.));
#677 = ADVANCED_FACE('',(#678),#703,.T.);
#678 = FACE_BOUND('',#679,.T.);
#679 = EDGE_LOOP('',(#680,#688,#696,#702));
#680 = ORIENTED_EDGE('',*,*,#681,.F.);
#681 = EDGE_CURVE('',#682,#573,#684,.T.);
#682 = VERTEX_POINT('',#683);
#683 = CARTESIAN_POINT('',(57.8,20.3,-3.3));
#684 = LINE('',#685,#686);
#685 = CARTESIAN_POINT('',(57.8,20.3,-3.3));
#686 = VECTOR('',#687,1.);
#687 = DIRECTION('',(0.,0.,1.));
#688 = ORIENTED_EDGE('',*,*,#689,.F.);
#689 = EDGE_CURVE('',#690,#682,#692,.T.);
#690 = VERTEX_POINT('',#691);
#691 = CARTESIAN_POINT('',(0.,20.3,-3.3));
#692 = LINE('',#693,#694);
#693 = CARTESIAN_POINT('',(0.,20.3,-3.3));
#694 = VECTOR('',#695,1.);
#695 = DIRECTION('',(1.,0.,-0.));
#696 = ORIENTED_EDGE('',*,*,#697,.T.);
#697 = EDGE_CURVE('',#690,#565,#698,.T.);
#698 = LINE('',#699,#700);
#699 = CARTESIAN_POINT('',(0.,20.3,-3.3));
#700 = VECTOR('',#701,1.);
#701 = DIRECTION('',(0.,0.,1.));
#702 = ORIENTED_EDGE('',*,*,#572,.F.);
#703 = PLANE('',#704);
#704 = AXIS2_PLACEMENT_3D('',#705,#706,#707);
#705 = CARTESIAN_POINT('',(0.,20.3,-3.3));
#706 = DIRECTION('',(-0.,1.,0.));
#707 = DIRECTION('',(0.,0.,1.));
#708 = ADVANCED_FACE('',(#709),#839,.T.);
#709 = FACE_BOUND('',#710,.T.);
#710 = EDGE_LOOP('',(#711,#712,#713,#719,#720,#728,#736,#744,#752,#760,
    #768,#776,#784,#792,#800,#808,#816,#824,#832,#838));
#711 = ORIENTED_EDGE('',*,*,#203,.F.);
#712 = ORIENTED_EDGE('',*,*,#253,.T.);
#713 = ORIENTED_EDGE('',*,*,#714,.T.);
#714 = EDGE_CURVE('',#254,#612,#715,.T.);
#715 = LINE('',#716,#717);
#716 = CARTESIAN_POINT('',(13.95,16.,-1.));
#717 = VECTOR('',#718,1.);
#718 = DIRECTION('',(0.,0.,1.));
#719 = ORIENTED_EDGE('',*,*,#611,.F.);
#720 = ORIENTED_EDGE('',*,*,#721,.F.);
#721 = EDGE_CURVE('',#722,#604,#724,.T.);
#722 = VERTEX_POINT('',#723);
#723 = CARTESIAN_POINT('',(13.95,15.7,5.));
#724 = LINE('',#725,#726);
#725 = CARTESIAN_POINT('',(13.95,15.7,1.495));
#726 = VECTOR('',#727,1.);
#727 = DIRECTION('',(-0.,0.,-1.));
#728 = ORIENTED_EDGE('',*,*,#729,.F.);
#729 = EDGE_CURVE('',#730,#722,#732,.T.);
#730 = VERTEX_POINT('',#731);
#731 = CARTESIAN_POINT('',(13.95,13.2,5.));
#732 = LINE('',#733,#734);
#733 = CARTESIAN_POINT('',(13.95,-16.,5.));
#734 = VECTOR('',#735,1.);
#735 = DIRECTION('',(-0.,1.,0.));
#736 = ORIENTED_EDGE('',*,*,#737,.T.);
#737 = EDGE_CURVE('',#730,#738,#740,.T.);
#738 = VERTEX_POINT('',#739);
#739 = CARTESIAN_POINT('',(13.95,13.2,4.));
#740 = LINE('',#741,#742);
#741 = CARTESIAN_POINT('',(13.95,13.2,1.5));
#742 = VECTOR('',#743,1.);
#743 = DIRECTION('',(-0.,0.,-1.));
#744 = ORIENTED_EDGE('',*,*,#745,.F.);
#745 = EDGE_CURVE('',#746,#738,#748,.T.);
#746 = VERTEX_POINT('',#747);
#747 = CARTESIAN_POINT('',(13.95,6.08,4.));
#748 = LINE('',#749,#750);
#749 = CARTESIAN_POINT('',(13.95,-19.,4.));
#750 = VECTOR('',#751,1.);
#751 = DIRECTION('',(-0.,1.,0.));
#752 = ORIENTED_EDGE('',*,*,#753,.F.);
#753 = EDGE_CURVE('',#754,#746,#756,.T.);
#754 = VERTEX_POINT('',#755);
#755 = CARTESIAN_POINT('',(13.95,6.08,5.));
#756 = LINE('',#757,#758);
#757 = CARTESIAN_POINT('',(13.95,6.08,1.5));
#758 = VECTOR('',#759,1.);
#759 = DIRECTION('',(-0.,0.,-1.));
#760 = ORIENTED_EDGE('',*,*,#761,.F.);
#761 = EDGE_CURVE('',#762,#754,#764,.T.);
#762 = VERTEX_POINT('',#763);
#763 = CARTESIAN_POINT('',(13.95,4.08,5.));
#764 = LINE('',#765,#766);
#765 = CARTESIAN_POINT('',(13.95,-16.,5.));
#766 = VECTOR('',#767,1.);
#767 = DIRECTION('',(-0.,1.,0.));
#768 = ORIENTED_EDGE('',*,*,#769,.T.);
#769 = EDGE_CURVE('',#762,#770,#772,.T.);
#770 = VERTEX_POINT('',#771);
#771 = CARTESIAN_POINT('',(13.95,4.08,4.));
#772 = LINE('',#773,#774);
#773 = CARTESIAN_POINT('',(13.95,4.08,1.5));
#774 = VECTOR('',#775,1.);
#775 = DIRECTION('',(-0.,0.,-1.));
#776 = ORIENTED_EDGE('',*,*,#777,.F.);
#777 = EDGE_CURVE('',#778,#770,#780,.T.);
#778 = VERTEX_POINT('',#779);
#779 = CARTESIAN_POINT('',(13.95,-4.08,4.));
#780 = LINE('',#781,#782);
#781 = CARTESIAN_POINT('',(13.95,-19.,4.));
#782 = VECTOR('',#783,1.);
#783 = DIRECTION('',(-0.,1.,0.));
#784 = ORIENTED_EDGE('',*,*,#785,.F.);
#785 = EDGE_CURVE('',#786,#778,#788,.T.);
#786 = VERTEX_POINT('',#787);
#787 = CARTESIAN_POINT('',(13.95,-4.08,5.));
#788 = LINE('',#789,#790);
#789 = CARTESIAN_POINT('',(13.95,-4.08,1.5));
#790 = VECTOR('',#791,1.);
#791 = DIRECTION('',(-0.,0.,-1.));
#792 = ORIENTED_EDGE('',*,*,#793,.F.);
#793 = EDGE_CURVE('',#794,#786,#796,.T.);
#794 = VERTEX_POINT('',#795);
#795 = CARTESIAN_POINT('',(13.95,-6.08,5.));
#796 = LINE('',#797,#798);
#797 = CARTESIAN_POINT('',(13.95,-16.,5.));
#798 = VECTOR('',#799,1.);
#799 = DIRECTION('',(-0.,1.,0.));
#800 = ORIENTED_EDGE('',*,*,#801,.T.);
#801 = EDGE_CURVE('',#794,#802,#804,.T.);
#802 = VERTEX_POINT('',#803);
#803 = CARTESIAN_POINT('',(13.95,-6.08,4.));
#804 = LINE('',#805,#806);
#805 = CARTESIAN_POINT('',(13.95,-6.08,1.5));
#806 = VECTOR('',#807,1.);
#807 = DIRECTION('',(-0.,0.,-1.));
#808 = ORIENTED_EDGE('',*,*,#809,.F.);
#809 = EDGE_CURVE('',#810,#802,#812,.T.);
#810 = VERTEX_POINT('',#811);
#811 = CARTESIAN_POINT('',(13.95,-13.2,4.));
#812 = LINE('',#813,#814);
#813 = CARTESIAN_POINT('',(13.95,-19.,4.));
#814 = VECTOR('',#815,1.);
#815 = DIRECTION('',(-0.,1.,0.));
#816 = ORIENTED_EDGE('',*,*,#817,.F.);
#817 = EDGE_CURVE('',#818,#810,#820,.T.);
#818 = VERTEX_POINT('',#819);
#819 = CARTESIAN_POINT('',(13.95,-13.2,5.));
#820 = LINE('',#821,#822);
#821 = CARTESIAN_POINT('',(13.95,-13.2,1.5));
#822 = VECTOR('',#823,1.);
#823 = DIRECTION('',(-0.,0.,-1.));
#824 = ORIENTED_EDGE('',*,*,#825,.F.);
#825 = EDGE_CURVE('',#826,#818,#828,.T.);
#826 = VERTEX_POINT('',#827);
#827 = CARTESIAN_POINT('',(13.95,-15.7,5.));
#828 = LINE('',#829,#830);
#829 = CARTESIAN_POINT('',(13.95,-16.,5.));
#830 = VECTOR('',#831,1.);
#831 = DIRECTION('',(-0.,1.,0.));
#832 = ORIENTED_EDGE('',*,*,#833,.T.);
#833 = EDGE_CURVE('',#826,#166,#834,.T.);
#834 = LINE('',#835,#836);
#835 = CARTESIAN_POINT('',(13.95,-15.7,1.495));
#836 = VECTOR('',#837,1.);
#837 = DIRECTION('',(-0.,0.,-1.));
#838 = ORIENTED_EDGE('',*,*,#165,.F.);
#839 = PLANE('',#840);
#840 = AXIS2_PLACEMENT_3D('',#841,#842,#843);
#841 = CARTESIAN_POINT('',(13.95,-16.,-1.));
#842 = DIRECTION('',(1.,0.,-0.));
#843 = DIRECTION('',(0.,0.,1.));
#844 = ADVANCED_FACE('',(#845),#851,.F.);
#845 = FACE_BOUND('',#846,.F.);
#846 = EDGE_LOOP('',(#847,#848,#849,#850));
#847 = ORIENTED_EDGE('',*,*,#381,.F.);
#848 = ORIENTED_EDGE('',*,*,#261,.T.);
#849 = ORIENTED_EDGE('',*,*,#714,.T.);
#850 = ORIENTED_EDGE('',*,*,#619,.F.);
#851 = PLANE('',#852);
#852 = AXIS2_PLACEMENT_3D('',#853,#854,#855);
#853 = CARTESIAN_POINT('',(13.95,16.,-1.));
#854 = DIRECTION('',(-0.,1.,0.));
#855 = DIRECTION('',(0.,0.,1.));
#856 = ADVANCED_FACE('',(#857),#873,.T.);
#857 = FACE_BOUND('',#858,.T.);
#858 = EDGE_LOOP('',(#859,#865,#866,#872));
#859 = ORIENTED_EDGE('',*,*,#860,.F.);
#860 = EDGE_CURVE('',#278,#118,#861,.T.);
#861 = LINE('',#862,#863);
#862 = CARTESIAN_POINT('',(43.85,-16.,-1.));
#863 = VECTOR('',#864,1.);
#864 = DIRECTION('',(0.,0.,1.));
#865 = ORIENTED_EDGE('',*,*,#277,.T.);
#866 = ORIENTED_EDGE('',*,*,#867,.T.);
#867 = EDGE_CURVE('',#280,#126,#868,.T.);
#868 = LINE('',#869,#870);
#869 = CARTESIAN_POINT('',(39.85,-16.,-1.));
#870 = VECTOR('',#871,1.);
#871 = DIRECTION('',(0.,0.,1.));
#872 = ORIENTED_EDGE('',*,*,#125,.F.);
#873 = PLANE('',#874);
#874 = AXIS2_PLACEMENT_3D('',#875,#876,#877);
#875 = CARTESIAN_POINT('',(39.85,-16.,-1.));
#876 = DIRECTION('',(-0.,1.,0.));
#877 = DIRECTION('',(0.,0.,1.));
#878 = ADVANCED_FACE('',(#879),#1009,.F.);
#879 = FACE_BOUND('',#880,.F.);
#880 = EDGE_LOOP('',(#881,#882,#883,#889,#890,#898,#906,#914,#922,#930,
    #938,#946,#954,#962,#970,#978,#986,#994,#1002,#1008));
#881 = ORIENTED_EDGE('',*,*,#860,.F.);
#882 = ORIENTED_EDGE('',*,*,#303,.T.);
#883 = ORIENTED_EDGE('',*,*,#884,.T.);
#884 = EDGE_CURVE('',#296,#643,#885,.T.);
#885 = LINE('',#886,#887);
#886 = CARTESIAN_POINT('',(43.85,16.,-1.));
#887 = VECTOR('',#888,1.);
#888 = DIRECTION('',(0.,0.,1.));
#889 = ORIENTED_EDGE('',*,*,#650,.F.);
#890 = ORIENTED_EDGE('',*,*,#891,.F.);
#891 = EDGE_CURVE('',#892,#651,#894,.T.);
#892 = VERTEX_POINT('',#893);
#893 = CARTESIAN_POINT('',(43.85,15.7,5.));
#894 = LINE('',#895,#896);
#895 = CARTESIAN_POINT('',(43.85,15.7,1.495));
#896 = VECTOR('',#897,1.);
#897 = DIRECTION('',(-0.,0.,-1.));
#898 = ORIENTED_EDGE('',*,*,#899,.F.);
#899 = EDGE_CURVE('',#900,#892,#902,.T.);
#900 = VERTEX_POINT('',#901);
#901 = CARTESIAN_POINT('',(43.85,13.2,5.));
#902 = LINE('',#903,#904);
#903 = CARTESIAN_POINT('',(43.85,-16.,5.));
#904 = VECTOR('',#905,1.);
#905 = DIRECTION('',(-0.,1.,0.));
#906 = ORIENTED_EDGE('',*,*,#907,.T.);
#907 = EDGE_CURVE('',#900,#908,#910,.T.);
#908 = VERTEX_POINT('',#909);
#909 = CARTESIAN_POINT('',(43.85,13.2,4.));
#910 = LINE('',#911,#912);
#911 = CARTESIAN_POINT('',(43.85,13.2,1.5));
#912 = VECTOR('',#913,1.);
#913 = DIRECTION('',(-0.,0.,-1.));
#914 = ORIENTED_EDGE('',*,*,#915,.F.);
#915 = EDGE_CURVE('',#916,#908,#918,.T.);
#916 = VERTEX_POINT('',#917);
#917 = CARTESIAN_POINT('',(43.85,6.08,4.));
#918 = LINE('',#919,#920);
#919 = CARTESIAN_POINT('',(43.85,-19.,4.));
#920 = VECTOR('',#921,1.);
#921 = DIRECTION('',(-0.,1.,0.));
#922 = ORIENTED_EDGE('',*,*,#923,.F.);
#923 = EDGE_CURVE('',#924,#916,#926,.T.);
#924 = VERTEX_POINT('',#925);
#925 = CARTESIAN_POINT('',(43.85,6.08,5.));
#926 = LINE('',#927,#928);
#927 = CARTESIAN_POINT('',(43.85,6.08,1.5));
#928 = VECTOR('',#929,1.);
#929 = DIRECTION('',(-0.,0.,-1.));
#930 = ORIENTED_EDGE('',*,*,#931,.F.);
#931 = EDGE_CURVE('',#932,#924,#934,.T.);
#932 = VERTEX_POINT('',#933);
#933 = CARTESIAN_POINT('',(43.85,4.08,5.));
#934 = LINE('',#935,#936);
#935 = CARTESIAN_POINT('',(43.85,-16.,5.));
#936 = VECTOR('',#937,1.);
#937 = DIRECTION('',(-0.,1.,0.));
#938 = ORIENTED_EDGE('',*,*,#939,.T.);
#939 = EDGE_CURVE('',#932,#940,#942,.T.);
#940 = VERTEX_POINT('',#941);
#941 = CARTESIAN_POINT('',(43.85,4.08,4.));
#942 = LINE('',#943,#944);
#943 = CARTESIAN_POINT('',(43.85,4.08,1.5));
#944 = VECTOR('',#945,1.);
#945 = DIRECTION('',(-0.,0.,-1.));
#946 = ORIENTED_EDGE('',*,*,#947,.F.);
#947 = EDGE_CURVE('',#948,#940,#950,.T.);
#948 = VERTEX_POINT('',#949);
#949 = CARTESIAN_POINT('',(43.85,-4.08,4.));
#950 = LINE('',#951,#952);
#951 = CARTESIAN_POINT('',(43.85,-19.,4.));
#952 = VECTOR('',#953,1.);
#953 = DIRECTION('',(-0.,1.,0.));
#954 = ORIENTED_EDGE('',*,*,#955,.F.);
#955 = EDGE_CURVE('',#956,#948,#958,.T.);
#956 = VERTEX_POINT('',#957);
#957 = CARTESIAN_POINT('',(43.85,-4.08,5.));
#958 = LINE('',#959,#960);
#959 = CARTESIAN_POINT('',(43.85,-4.08,1.5));
#960 = VECTOR('',#961,1.);
#961 = DIRECTION('',(-0.,0.,-1.));
#962 = ORIENTED_EDGE('',*,*,#963,.F.);
#963 = EDGE_CURVE('',#964,#956,#966,.T.);
#964 = VERTEX_POINT('',#965);
#965 = CARTESIAN_POINT('',(43.85,-6.08,5.));
#966 = LINE('',#967,#968);
#967 = CARTESIAN_POINT('',(43.85,-16.,5.));
#968 = VECTOR('',#969,1.);
#969 = DIRECTION('',(-0.,1.,0.));
#970 = ORIENTED_EDGE('',*,*,#971,.T.);
#971 = EDGE_CURVE('',#964,#972,#974,.T.);
#972 = VERTEX_POINT('',#973);
#973 = CARTESIAN_POINT('',(43.85,-6.08,4.));
#974 = LINE('',#975,#976);
#975 = CARTESIAN_POINT('',(43.85,-6.08,1.5));
#976 = VECTOR('',#977,1.);
#977 = DIRECTION('',(-0.,0.,-1.));
#978 = ORIENTED_EDGE('',*,*,#979,.F.);
#979 = EDGE_CURVE('',#980,#972,#982,.T.);
#980 = VERTEX_POINT('',#981);
#981 = CARTESIAN_POINT('',(43.85,-13.2,4.));
#982 = LINE('',#983,#984);
#983 = CARTESIAN_POINT('',(43.85,-19.,4.));
#984 = VECTOR('',#985,1.);
#985 = DIRECTION('',(-0.,1.,0.));
#986 = ORIENTED_EDGE('',*,*,#987,.F.);
#987 = EDGE_CURVE('',#988,#980,#990,.T.);
#988 = VERTEX_POINT('',#989);
#989 = CARTESIAN_POINT('',(43.85,-13.2,5.));
#990 = LINE('',#991,#992);
#991 = CARTESIAN_POINT('',(43.85,-13.2,1.5));
#992 = VECTOR('',#993,1.);
#993 = DIRECTION('',(-0.,0.,-1.));
#994 = ORIENTED_EDGE('',*,*,#995,.F.);
#995 = EDGE_CURVE('',#996,#988,#998,.T.);
#996 = VERTEX_POINT('',#997);
#997 = CARTESIAN_POINT('',(43.85,-15.7,5.));
#998 = LINE('',#999,#1000);
#999 = CARTESIAN_POINT('',(43.85,-16.,5.));
#1000 = VECTOR('',#1001,1.);
#1001 = DIRECTION('',(-0.,1.,0.));
#1002 = ORIENTED_EDGE('',*,*,#1003,.T.);
#1003 = EDGE_CURVE('',#996,#110,#1004,.T.);
#1004 = LINE('',#1005,#1006);
#1005 = CARTESIAN_POINT('',(43.85,-15.7,1.495));
#1006 = VECTOR('',#1007,1.);
#1007 = DIRECTION('',(-0.,0.,-1.));
#1008 = ORIENTED_EDGE('',*,*,#117,.F.);
#1009 = PLANE('',#1010);
#1010 = AXIS2_PLACEMENT_3D('',#1011,#1012,#1013);
#1011 = CARTESIAN_POINT('',(43.85,-16.,-1.));
#1012 = DIRECTION('',(1.,0.,-0.));
#1013 = DIRECTION('',(0.,0.,1.));
#1014 = ADVANCED_FACE('',(#1015),#1026,.F.);
#1015 = FACE_BOUND('',#1016,.F.);
#1016 = EDGE_LOOP('',(#1017,#1018,#1019,#1025));
#1017 = ORIENTED_EDGE('',*,*,#884,.F.);
#1018 = ORIENTED_EDGE('',*,*,#295,.T.);
#1019 = ORIENTED_EDGE('',*,*,#1020,.T.);
#1020 = EDGE_CURVE('',#288,#635,#1021,.T.);
#1021 = LINE('',#1022,#1023);
#1022 = CARTESIAN_POINT('',(39.85,16.,-1.));
#1023 = VECTOR('',#1024,1.);
#1024 = DIRECTION('',(0.,0.,1.));
#1025 = ORIENTED_EDGE('',*,*,#642,.F.);
#1026 = PLANE('',#1027);
#1027 = AXIS2_PLACEMENT_3D('',#1028,#1029,#1030);
#1028 = CARTESIAN_POINT('',(39.85,16.,-1.));
#1029 = DIRECTION('',(-0.,1.,0.));
#1030 = DIRECTION('',(0.,0.,1.));
#1031 = ADVANCED_FACE('',(#1032),#1157,.T.);
#1032 = FACE_BOUND('',#1033,.T.);
#1033 = EDGE_LOOP('',(#1034,#1035,#1036,#1037,#1038,#1046,#1054,#1062,
    #1070,#1078,#1086,#1094,#1102,#1110,#1118,#1126,#1134,#1142,#1150,
    #1156));
#1034 = ORIENTED_EDGE('',*,*,#867,.F.);
#1035 = ORIENTED_EDGE('',*,*,#287,.T.);
#1036 = ORIENTED_EDGE('',*,*,#1020,.T.);
#1037 = ORIENTED_EDGE('',*,*,#634,.F.);
#1038 = ORIENTED_EDGE('',*,*,#1039,.F.);
#1039 = EDGE_CURVE('',#1040,#627,#1042,.T.);
#1040 = VERTEX_POINT('',#1041);
#1041 = CARTESIAN_POINT('',(39.85,15.7,5.));
#1042 = LINE('',#1043,#1044);
#1043 = CARTESIAN_POINT('',(39.85,15.7,1.495));
#1044 = VECTOR('',#1045,1.);
#1045 = DIRECTION('',(-0.,0.,-1.));
#1046 = ORIENTED_EDGE('',*,*,#1047,.F.);
#1047 = EDGE_CURVE('',#1048,#1040,#1050,.T.);
#1048 = VERTEX_POINT('',#1049);
#1049 = CARTESIAN_POINT('',(39.85,13.2,5.));
#1050 = LINE('',#1051,#1052);
#1051 = CARTESIAN_POINT('',(39.85,-16.,5.));
#1052 = VECTOR('',#1053,1.);
#1053 = DIRECTION('',(-0.,1.,0.));
#1054 = ORIENTED_EDGE('',*,*,#1055,.T.);
#1055 = EDGE_CURVE('',#1048,#1056,#1058,.T.);
#1056 = VERTEX_POINT('',#1057);
#1057 = CARTESIAN_POINT('',(39.85,13.2,4.));
#1058 = LINE('',#1059,#1060);
#1059 = CARTESIAN_POINT('',(39.85,13.2,1.5));
#1060 = VECTOR('',#1061,1.);
#1061 = DIRECTION('',(-0.,0.,-1.));
#1062 = ORIENTED_EDGE('',*,*,#1063,.F.);
#1063 = EDGE_CURVE('',#1064,#1056,#1066,.T.);
#1064 = VERTEX_POINT('',#1065);
#1065 = CARTESIAN_POINT('',(39.85,6.08,4.));
#1066 = LINE('',#1067,#1068);
#1067 = CARTESIAN_POINT('',(39.85,-19.,4.));
#1068 = VECTOR('',#1069,1.);
#1069 = DIRECTION('',(-0.,1.,0.));
#1070 = ORIENTED_EDGE('',*,*,#1071,.F.);
#1071 = EDGE_CURVE('',#1072,#1064,#1074,.T.);
#1072 = VERTEX_POINT('',#1073);
#1073 = CARTESIAN_POINT('',(39.85,6.08,5.));
#1074 = LINE('',#1075,#1076);
#1075 = CARTESIAN_POINT('',(39.85,6.08,1.5));
#1076 = VECTOR('',#1077,1.);
#1077 = DIRECTION('',(-0.,0.,-1.));
#1078 = ORIENTED_EDGE('',*,*,#1079,.F.);
#1079 = EDGE_CURVE('',#1080,#1072,#1082,.T.);
#1080 = VERTEX_POINT('',#1081);
#1081 = CARTESIAN_POINT('',(39.85,4.08,5.));
#1082 = LINE('',#1083,#1084);
#1083 = CARTESIAN_POINT('',(39.85,-16.,5.));
#1084 = VECTOR('',#1085,1.);
#1085 = DIRECTION('',(-0.,1.,0.));
#1086 = ORIENTED_EDGE('',*,*,#1087,.T.);
#1087 = EDGE_CURVE('',#1080,#1088,#1090,.T.);
#1088 = VERTEX_POINT('',#1089);
#1089 = CARTESIAN_POINT('',(39.85,4.08,4.));
#1090 = LINE('',#1091,#1092);
#1091 = CARTESIAN_POINT('',(39.85,4.08,1.5));
#1092 = VECTOR('',#1093,1.);
#1093 = DIRECTION('',(-0.,0.,-1.));
#1094 = ORIENTED_EDGE('',*,*,#1095,.F.);
#1095 = EDGE_CURVE('',#1096,#1088,#1098,.T.);
#1096 = VERTEX_POINT('',#1097);
#1097 = CARTESIAN_POINT('',(39.85,-4.08,4.));
#1098 = LINE('',#1099,#1100);
#1099 = CARTESIAN_POINT('',(39.85,-19.,4.));
#1100 = VECTOR('',#1101,1.);
#1101 = DIRECTION('',(-0.,1.,0.));
#1102 = ORIENTED_EDGE('',*,*,#1103,.F.);
#1103 = EDGE_CURVE('',#1104,#1096,#1106,.T.);
#1104 = VERTEX_POINT('',#1105);
#1105 = CARTESIAN_POINT('',(39.85,-4.08,5.));
#1106 = LINE('',#1107,#1108);
#1107 = CARTESIAN_POINT('',(39.85,-4.08,1.5));
#1108 = VECTOR('',#1109,1.);
#1109 = DIRECTION('',(-0.,0.,-1.));
#1110 = ORIENTED_EDGE('',*,*,#1111,.F.);
#1111 = EDGE_CURVE('',#1112,#1104,#1114,.T.);
#1112 = VERTEX_POINT('',#1113);
#1113 = CARTESIAN_POINT('',(39.85,-6.08,5.));
#1114 = LINE('',#1115,#1116);
#1115 = CARTESIAN_POINT('',(39.85,-16.,5.));
#1116 = VECTOR('',#1117,1.);
#1117 = DIRECTION('',(-0.,1.,0.));
#1118 = ORIENTED_EDGE('',*,*,#1119,.T.);
#1119 = EDGE_CURVE('',#1112,#1120,#1122,.T.);
#1120 = VERTEX_POINT('',#1121);
#1121 = CARTESIAN_POINT('',(39.85,-6.08,4.));
#1122 = LINE('',#1123,#1124);
#1123 = CARTESIAN_POINT('',(39.85,-6.08,1.5));
#1124 = VECTOR('',#1125,1.);
#1125 = DIRECTION('',(-0.,0.,-1.));
#1126 = ORIENTED_EDGE('',*,*,#1127,.F.);
#1127 = EDGE_CURVE('',#1128,#1120,#1130,.T.);
#1128 = VERTEX_POINT('',#1129);
#1129 = CARTESIAN_POINT('',(39.85,-13.2,4.));
#1130 = LINE('',#1131,#1132);
#1131 = CARTESIAN_POINT('',(39.85,-19.,4.));
#1132 = VECTOR('',#1133,1.);
#1133 = DIRECTION('',(-0.,1.,0.));
#1134 = ORIENTED_EDGE('',*,*,#1135,.F.);
#1135 = EDGE_CURVE('',#1136,#1128,#1138,.T.);
#1136 = VERTEX_POINT('',#1137);
#1137 = CARTESIAN_POINT('',(39.85,-13.2,5.));
#1138 = LINE('',#1139,#1140);
#1139 = CARTESIAN_POINT('',(39.85,-13.2,1.5));
#1140 = VECTOR('',#1141,1.);
#1141 = DIRECTION('',(-0.,0.,-1.));
#1142 = ORIENTED_EDGE('',*,*,#1143,.F.);
#1143 = EDGE_CURVE('',#1144,#1136,#1146,.T.);
#1144 = VERTEX_POINT('',#1145);
#1145 = CARTESIAN_POINT('',(39.85,-15.7,5.));
#1146 = LINE('',#1147,#1148);
#1147 = CARTESIAN_POINT('',(39.85,-16.,5.));
#1148 = VECTOR('',#1149,1.);
#1149 = DIRECTION('',(-0.,1.,0.));
#1150 = ORIENTED_EDGE('',*,*,#1151,.T.);
#1151 = EDGE_CURVE('',#1144,#134,#1152,.T.);
#1152 = LINE('',#1153,#1154);
#1153 = CARTESIAN_POINT('',(39.85,-15.7,1.495));
#1154 = VECTOR('',#1155,1.);
#1155 = DIRECTION('',(-0.,0.,-1.));
#1156 = ORIENTED_EDGE('',*,*,#133,.F.);
#1157 = PLANE('',#1158);
#1158 = AXIS2_PLACEMENT_3D('',#1159,#1160,#1161);
#1159 = CARTESIAN_POINT('',(39.85,-16.,-1.));
#1160 = DIRECTION('',(1.,0.,-0.));
#1161 = DIRECTION('',(0.,0.,1.));
#1162 = ADVANCED_FACE('',(#1163),#1188,.F.);
#1163 = FACE_BOUND('',#1164,.F.);
#1164 = EDGE_LOOP('',(#1165,#1173,#1181,#1187));
#1165 = ORIENTED_EDGE('',*,*,#1166,.F.);
#1166 = EDGE_CURVE('',#1167,#40,#1169,.T.);
#1167 = VERTEX_POINT('',#1168);
#1168 = CARTESIAN_POINT('',(57.8,-20.3,-3.3));
#1169 = LINE('',#1170,#1171);
#1170 = CARTESIAN_POINT('',(57.8,-20.3,-3.3));
#1171 = VECTOR('',#1172,1.);
#1172 = DIRECTION('',(0.,0.,1.));
#1173 = ORIENTED_EDGE('',*,*,#1174,.F.);
#1174 = EDGE_CURVE('',#1175,#1167,#1177,.T.);
#1175 = VERTEX_POINT('',#1176);
#1176 = CARTESIAN_POINT('',(0.,-20.3,-3.3));
#1177 = LINE('',#1178,#1179);
#1178 = CARTESIAN_POINT('',(0.,-20.3,-3.3));
#1179 = VECTOR('',#1180,1.);
#1180 = DIRECTION('',(1.,0.,-0.));
#1181 = ORIENTED_EDGE('',*,*,#1182,.T.);
#1182 = EDGE_CURVE('',#1175,#24,#1183,.T.);
#1183 = LINE('',#1184,#1185);
#1184 = CARTESIAN_POINT('',(0.,-20.3,-3.3));
#1185 = VECTOR('',#1186,1.);
#1186 = DIRECTION('',(0.,0.,1.));
#1187 = ORIENTED_EDGE('',*,*,#47,.F.);
#1188 = PLANE('',#1189);
#1189 = AXIS2_PLACEMENT_3D('',#1190,#1191,#1192);
#1190 = CARTESIAN_POINT('',(0.,-20.3,-3.3));
#1191 = DIRECTION('',(-0.,1.,0.));
#1192 = DIRECTION('',(0.,0.,1.));
#1193 = ADVANCED_FACE('',(#1194),#1237,.F.);
#1194 = FACE_BOUND('',#1195,.F.);
#1195 = EDGE_LOOP('',(#1196,#1204,#1205,#1206,#1212,#1213,#1214,#1215,
    #1221,#1222,#1223,#1231));
#1196 = ORIENTED_EDGE('',*,*,#1197,.F.);
#1197 = EDGE_CURVE('',#102,#1198,#1200,.T.);
#1198 = VERTEX_POINT('',#1199);
#1199 = CARTESIAN_POINT('',(57.8,-15.7,17.99));
#1200 = LINE('',#1201,#1202);
#1201 = CARTESIAN_POINT('',(57.8,-15.7,3.99));
#1202 = VECTOR('',#1203,1.);
#1203 = DIRECTION('',(0.,0.,1.));
#1204 = ORIENTED_EDGE('',*,*,#109,.T.);
#1205 = ORIENTED_EDGE('',*,*,#1003,.F.);
#1206 = ORIENTED_EDGE('',*,*,#1207,.F.);
#1207 = EDGE_CURVE('',#1144,#996,#1208,.T.);
#1208 = LINE('',#1209,#1210);
#1209 = CARTESIAN_POINT('',(19.925,-15.7,5.));
#1210 = VECTOR('',#1211,1.);
#1211 = DIRECTION('',(1.,0.,-0.));
#1212 = ORIENTED_EDGE('',*,*,#1151,.T.);
#1213 = ORIENTED_EDGE('',*,*,#141,.T.);
#1214 = ORIENTED_EDGE('',*,*,#509,.F.);
#1215 = ORIENTED_EDGE('',*,*,#1216,.F.);
#1216 = EDGE_CURVE('',#826,#502,#1217,.T.);
#1217 = LINE('',#1218,#1219);
#1218 = CARTESIAN_POINT('',(6.975,-15.7,5.));
#1219 = VECTOR('',#1220,1.);
#1220 = DIRECTION('',(1.,0.,-0.));
#1221 = ORIENTED_EDGE('',*,*,#833,.T.);
#1222 = ORIENTED_EDGE('',*,*,#173,.T.);
#1223 = ORIENTED_EDGE('',*,*,#1224,.T.);
#1224 = EDGE_CURVE('',#93,#1225,#1227,.T.);
#1225 = VERTEX_POINT('',#1226);
#1226 = CARTESIAN_POINT('',(0.,-15.7,17.99));
#1227 = LINE('',#1228,#1229);
#1228 = CARTESIAN_POINT('',(0.,-15.7,3.99));
#1229 = VECTOR('',#1230,1.);
#1230 = DIRECTION('',(0.,0.,1.));
#1231 = ORIENTED_EDGE('',*,*,#1232,.T.);
#1232 = EDGE_CURVE('',#1225,#1198,#1233,.T.);
#1233 = LINE('',#1234,#1235);
#1234 = CARTESIAN_POINT('',(0.,-15.7,17.99));
#1235 = VECTOR('',#1236,1.);
#1236 = DIRECTION('',(1.,0.,-0.));
#1237 = PLANE('',#1238);
#1238 = AXIS2_PLACEMENT_3D('',#1239,#1240,#1241);
#1239 = CARTESIAN_POINT('',(0.,-15.7,3.99));
#1240 = DIRECTION('',(-0.,1.,0.));
#1241 = DIRECTION('',(0.,0.,1.));
#1242 = ADVANCED_FACE('',(#1243),#1286,.T.);
#1243 = FACE_BOUND('',#1244,.T.);
#1244 = EDGE_LOOP('',(#1245,#1253,#1254,#1255,#1261,#1262,#1263,#1264,
    #1270,#1271,#1272,#1280));
#1245 = ORIENTED_EDGE('',*,*,#1246,.F.);
#1246 = EDGE_CURVE('',#659,#1247,#1249,.T.);
#1247 = VERTEX_POINT('',#1248);
#1248 = CARTESIAN_POINT('',(57.8,15.7,17.99));
#1249 = LINE('',#1250,#1251);
#1250 = CARTESIAN_POINT('',(57.8,15.7,3.99));
#1251 = VECTOR('',#1252,1.);
#1252 = DIRECTION('',(0.,0.,1.));
#1253 = ORIENTED_EDGE('',*,*,#658,.T.);
#1254 = ORIENTED_EDGE('',*,*,#891,.F.);
#1255 = ORIENTED_EDGE('',*,*,#1256,.F.);
#1256 = EDGE_CURVE('',#1040,#892,#1257,.T.);
#1257 = LINE('',#1258,#1259);
#1258 = CARTESIAN_POINT('',(19.925,15.7,5.));
#1259 = VECTOR('',#1260,1.);
#1260 = DIRECTION('',(1.,0.,-0.));
#1261 = ORIENTED_EDGE('',*,*,#1039,.T.);
#1262 = ORIENTED_EDGE('',*,*,#626,.T.);
#1263 = ORIENTED_EDGE('',*,*,#397,.F.);
#1264 = ORIENTED_EDGE('',*,*,#1265,.F.);
#1265 = EDGE_CURVE('',#722,#398,#1266,.T.);
#1266 = LINE('',#1267,#1268);
#1267 = CARTESIAN_POINT('',(6.975,15.7,5.));
#1268 = VECTOR('',#1269,1.);
#1269 = DIRECTION('',(1.,0.,-0.));
#1270 = ORIENTED_EDGE('',*,*,#721,.T.);
#1271 = ORIENTED_EDGE('',*,*,#603,.T.);
#1272 = ORIENTED_EDGE('',*,*,#1273,.T.);
#1273 = EDGE_CURVE('',#596,#1274,#1276,.T.);
#1274 = VERTEX_POINT('',#1275);
#1275 = CARTESIAN_POINT('',(0.,15.7,17.99));
#1276 = LINE('',#1277,#1278);
#1277 = CARTESIAN_POINT('',(0.,15.7,3.99));
#1278 = VECTOR('',#1279,1.);
#1279 = DIRECTION('',(0.,0.,1.));
#1280 = ORIENTED_EDGE('',*,*,#1281,.T.);
#1281 = EDGE_CURVE('',#1274,#1247,#1282,.T.);
#1282 = LINE('',#1283,#1284);
#1283 = CARTESIAN_POINT('',(0.,15.7,17.99));
#1284 = VECTOR('',#1285,1.);
#1285 = DIRECTION('',(1.,0.,-0.));
#1286 = PLANE('',#1287);
#1287 = AXIS2_PLACEMENT_3D('',#1288,#1289,#1290);
#1288 = CARTESIAN_POINT('',(0.,15.7,3.99));
#1289 = DIRECTION('',(-0.,1.,0.));
#1290 = DIRECTION('',(0.,0.,1.));
#1291 = ADVANCED_FACE('',(#1292),#1317,.T.);
#1292 = FACE_BOUND('',#1293,.T.);
#1293 = EDGE_LOOP('',(#1294,#1302,#1303,#1311));
#1294 = ORIENTED_EDGE('',*,*,#1295,.F.);
#1295 = EDGE_CURVE('',#326,#1296,#1298,.T.);
#1296 = VERTEX_POINT('',#1297);
#1297 = CARTESIAN_POINT('',(0.,-14.5,-1.3));
#1298 = LINE('',#1299,#1300);
#1299 = CARTESIAN_POINT('',(0.,-17.8,-1.3));
#1300 = VECTOR('',#1301,1.);
#1301 = DIRECTION('',(-0.,1.,0.));
#1302 = ORIENTED_EDGE('',*,*,#325,.T.);
#1303 = ORIENTED_EDGE('',*,*,#1304,.T.);
#1304 = EDGE_CURVE('',#318,#1305,#1307,.T.);
#1305 = VERTEX_POINT('',#1306);
#1306 = CARTESIAN_POINT('',(57.8,-14.5,-1.3));
#1307 = LINE('',#1308,#1309);
#1308 = CARTESIAN_POINT('',(57.8,-17.8,-1.3));
#1309 = VECTOR('',#1310,1.);
#1310 = DIRECTION('',(-0.,1.,0.));
#1311 = ORIENTED_EDGE('',*,*,#1312,.F.);
#1312 = EDGE_CURVE('',#1296,#1305,#1313,.T.);
#1313 = LINE('',#1314,#1315);
#1314 = CARTESIAN_POINT('',(0.,-14.5,-1.3));
#1315 = VECTOR('',#1316,1.);
#1316 = DIRECTION('',(1.,0.,-0.));
#1317 = PLANE('',#1318);
#1318 = AXIS2_PLACEMENT_3D('',#1319,#1320,#1321);
#1319 = CARTESIAN_POINT('',(0.,-17.8,-1.3));
#1320 = DIRECTION('',(0.,0.,1.));
#1321 = DIRECTION('',(1.,0.,-0.));
#1322 = ADVANCED_FACE('',(#1323),#1348,.T.);
#1323 = FACE_BOUND('',#1324,.T.);
#1324 = EDGE_LOOP('',(#1325,#1333,#1341,#1347));
#1325 = ORIENTED_EDGE('',*,*,#1326,.F.);
#1326 = EDGE_CURVE('',#1327,#357,#1329,.T.);
#1327 = VERTEX_POINT('',#1328);
#1328 = CARTESIAN_POINT('',(0.,14.5,-1.3));
#1329 = LINE('',#1330,#1331);
#1330 = CARTESIAN_POINT('',(0.,14.5,-1.3));
#1331 = VECTOR('',#1332,1.);
#1332 = DIRECTION('',(-0.,1.,0.));
#1333 = ORIENTED_EDGE('',*,*,#1334,.T.);
#1334 = EDGE_CURVE('',#1327,#1335,#1337,.T.);
#1335 = VERTEX_POINT('',#1336);
#1336 = CARTESIAN_POINT('',(57.8,14.5,-1.3));
#1337 = LINE('',#1338,#1339);
#1338 = CARTESIAN_POINT('',(0.,14.5,-1.3));
#1339 = VECTOR('',#1340,1.);
#1340 = DIRECTION('',(1.,0.,-0.));
#1341 = ORIENTED_EDGE('',*,*,#1342,.T.);
#1342 = EDGE_CURVE('',#1335,#349,#1343,.T.);
#1343 = LINE('',#1344,#1345);
#1344 = CARTESIAN_POINT('',(57.8,14.5,-1.3));
#1345 = VECTOR('',#1346,1.);
#1346 = DIRECTION('',(-0.,1.,0.));
#1347 = ORIENTED_EDGE('',*,*,#356,.F.);
#1348 = PLANE('',#1349);
#1349 = AXIS2_PLACEMENT_3D('',#1350,#1351,#1352);
#1350 = CARTESIAN_POINT('',(0.,14.5,-1.3));
#1351 = DIRECTION('',(0.,0.,1.));
#1352 = DIRECTION('',(1.,0.,-0.));
#1353 = ADVANCED_FACE('',(#1354),#1365,.F.);
#1354 = FACE_BOUND('',#1355,.F.);
#1355 = EDGE_LOOP('',(#1356,#1357,#1358,#1359));
#1356 = ORIENTED_EDGE('',*,*,#825,.F.);
#1357 = ORIENTED_EDGE('',*,*,#1216,.T.);
#1358 = ORIENTED_EDGE('',*,*,#501,.T.);
#1359 = ORIENTED_EDGE('',*,*,#1360,.F.);
#1360 = EDGE_CURVE('',#818,#494,#1361,.T.);
#1361 = LINE('',#1362,#1363);
#1362 = CARTESIAN_POINT('',(8.225,-13.2,5.));
#1363 = VECTOR('',#1364,1.);
#1364 = DIRECTION('',(1.,0.,-0.));
#1365 = PLANE('',#1366);
#1366 = AXIS2_PLACEMENT_3D('',#1367,#1368,#1369);
#1367 = CARTESIAN_POINT('',(13.95,-16.,5.));
#1368 = DIRECTION('',(0.,0.,1.));
#1369 = DIRECTION('',(1.,0.,-0.));
#1370 = ADVANCED_FACE('',(#1371),#1428,.T.);
#1371 = FACE_BOUND('',#1372,.T.);
#1372 = EDGE_LOOP('',(#1373,#1383,#1389,#1390,#1396,#1397,#1403,#1404,
    #1405,#1406,#1414,#1422));
#1373 = ORIENTED_EDGE('',*,*,#1374,.F.);
#1374 = EDGE_CURVE('',#1375,#1377,#1379,.T.);
#1375 = VERTEX_POINT('',#1376);
#1376 = CARTESIAN_POINT('',(55.3,-13.2,4.));
#1377 = VERTEX_POINT('',#1378);
#1378 = CARTESIAN_POINT('',(55.3,-13.2,17.99));
#1379 = LINE('',#1380,#1381);
#1380 = CARTESIAN_POINT('',(55.3,-13.2,4.));
#1381 = VECTOR('',#1382,1.);
#1382 = DIRECTION('',(0.,0.,1.));
#1383 = ORIENTED_EDGE('',*,*,#1384,.F.);
#1384 = EDGE_CURVE('',#980,#1375,#1385,.T.);
#1385 = LINE('',#1386,#1387);
#1386 = CARTESIAN_POINT('',(2.5,-13.2,4.));
#1387 = VECTOR('',#1388,1.);
#1388 = DIRECTION('',(1.,0.,-0.));
#1389 = ORIENTED_EDGE('',*,*,#987,.F.);
#1390 = ORIENTED_EDGE('',*,*,#1391,.F.);
#1391 = EDGE_CURVE('',#1136,#988,#1392,.T.);
#1392 = LINE('',#1393,#1394);
#1393 = CARTESIAN_POINT('',(21.175,-13.2,5.));
#1394 = VECTOR('',#1395,1.);
#1395 = DIRECTION('',(1.,0.,-0.));
#1396 = ORIENTED_EDGE('',*,*,#1135,.T.);
#1397 = ORIENTED_EDGE('',*,*,#1398,.F.);
#1398 = EDGE_CURVE('',#486,#1128,#1399,.T.);
#1399 = LINE('',#1400,#1401);
#1400 = CARTESIAN_POINT('',(2.5,-13.2,4.));
#1401 = VECTOR('',#1402,1.);
#1402 = DIRECTION('',(1.,0.,-0.));
#1403 = ORIENTED_EDGE('',*,*,#493,.F.);
#1404 = ORIENTED_EDGE('',*,*,#1360,.F.);
#1405 = ORIENTED_EDGE('',*,*,#817,.T.);
#1406 = ORIENTED_EDGE('',*,*,#1407,.F.);
#1407 = EDGE_CURVE('',#1408,#810,#1410,.T.);
#1408 = VERTEX_POINT('',#1409);
#1409 = CARTESIAN_POINT('',(2.5,-13.2,4.));
#1410 = LINE('',#1411,#1412);
#1411 = CARTESIAN_POINT('',(2.5,-13.2,4.));
#1412 = VECTOR('',#1413,1.);
#1413 = DIRECTION('',(1.,0.,-0.));
#1414 = ORIENTED_EDGE('',*,*,#1415,.T.);
#1415 = EDGE_CURVE('',#1408,#1416,#1418,.T.);
#1416 = VERTEX_POINT('',#1417);
#1417 = CARTESIAN_POINT('',(2.5,-13.2,17.99));
#1418 = LINE('',#1419,#1420);
#1419 = CARTESIAN_POINT('',(2.5,-13.2,4.));
#1420 = VECTOR('',#1421,1.);
#1421 = DIRECTION('',(0.,0.,1.));
#1422 = ORIENTED_EDGE('',*,*,#1423,.F.);
#1423 = EDGE_CURVE('',#1377,#1416,#1424,.T.);
#1424 = LINE('',#1425,#1426);
#1425 = CARTESIAN_POINT('',(1.25,-13.2,17.99));
#1426 = VECTOR('',#1427,1.);
#1427 = DIRECTION('',(-1.,-0.,0.));
#1428 = PLANE('',#1429);
#1429 = AXIS2_PLACEMENT_3D('',#1430,#1431,#1432);
#1430 = CARTESIAN_POINT('',(2.5,-13.2,4.));
#1431 = DIRECTION('',(-0.,1.,0.));
#1432 = DIRECTION('',(0.,0.,1.));
#1433 = ADVANCED_FACE('',(#1434),#1445,.T.);
#1434 = FACE_BOUND('',#1435,.T.);
#1435 = EDGE_LOOP('',(#1436,#1437,#1438,#1439));
#1436 = ORIENTED_EDGE('',*,*,#485,.F.);
#1437 = ORIENTED_EDGE('',*,*,#1398,.T.);
#1438 = ORIENTED_EDGE('',*,*,#1127,.T.);
#1439 = ORIENTED_EDGE('',*,*,#1440,.F.);
#1440 = EDGE_CURVE('',#478,#1120,#1441,.T.);
#1441 = LINE('',#1442,#1443);
#1442 = CARTESIAN_POINT('',(8.,-6.08,4.));
#1443 = VECTOR('',#1444,1.);
#1444 = DIRECTION('',(1.,0.,-0.));
#1445 = PLANE('',#1446);
#1446 = AXIS2_PLACEMENT_3D('',#1447,#1448,#1449);
#1447 = CARTESIAN_POINT('',(0.,-22.,4.));
#1448 = DIRECTION('',(0.,0.,1.));
#1449 = DIRECTION('',(1.,0.,-0.));
#1450 = ADVANCED_FACE('',(#1451),#1508,.F.);
#1451 = FACE_BOUND('',#1452,.F.);
#1452 = EDGE_LOOP('',(#1453,#1461,#1469,#1477,#1485,#1491,#1492,#1498,
    #1499,#1500,#1501,#1507));
#1453 = ORIENTED_EDGE('',*,*,#1454,.F.);
#1454 = EDGE_CURVE('',#1455,#802,#1457,.T.);
#1455 = VERTEX_POINT('',#1456);
#1456 = CARTESIAN_POINT('',(8.,-6.08,4.));
#1457 = LINE('',#1458,#1459);
#1458 = CARTESIAN_POINT('',(8.,-6.08,4.));
#1459 = VECTOR('',#1460,1.);
#1460 = DIRECTION('',(1.,0.,-0.));
#1461 = ORIENTED_EDGE('',*,*,#1462,.T.);
#1462 = EDGE_CURVE('',#1455,#1463,#1465,.T.);
#1463 = VERTEX_POINT('',#1464);
#1464 = CARTESIAN_POINT('',(8.,-6.08,14.));
#1465 = LINE('',#1466,#1467);
#1466 = CARTESIAN_POINT('',(8.,-6.08,4.));
#1467 = VECTOR('',#1468,1.);
#1468 = DIRECTION('',(0.,0.,1.));
#1469 = ORIENTED_EDGE('',*,*,#1470,.T.);
#1470 = EDGE_CURVE('',#1463,#1471,#1473,.T.);
#1471 = VERTEX_POINT('',#1472);
#1472 = CARTESIAN_POINT('',(49.8,-6.08,14.));
#1473 = LINE('',#1474,#1475);
#1474 = CARTESIAN_POINT('',(8.,-6.08,14.));
#1475 = VECTOR('',#1476,1.);
#1476 = DIRECTION('',(1.,0.,-0.));
#1477 = ORIENTED_EDGE('',*,*,#1478,.F.);
#1478 = EDGE_CURVE('',#1479,#1471,#1481,.T.);
#1479 = VERTEX_POINT('',#1480);
#1480 = CARTESIAN_POINT('',(49.8,-6.08,4.));
#1481 = LINE('',#1482,#1483);
#1482 = CARTESIAN_POINT('',(49.8,-6.08,4.));
#1483 = VECTOR('',#1484,1.);
#1484 = DIRECTION('',(0.,0.,1.));
#1485 = ORIENTED_EDGE('',*,*,#1486,.F.);
#1486 = EDGE_CURVE('',#972,#1479,#1487,.T.);
#1487 = LINE('',#1488,#1489);
#1488 = CARTESIAN_POINT('',(8.,-6.08,4.));
#1489 = VECTOR('',#1490,1.);
#1490 = DIRECTION('',(1.,0.,-0.));
#1491 = ORIENTED_EDGE('',*,*,#971,.F.);
#1492 = ORIENTED_EDGE('',*,*,#1493,.F.);
#1493 = EDGE_CURVE('',#1112,#964,#1494,.T.);
#1494 = LINE('',#1495,#1496);
#1495 = CARTESIAN_POINT('',(23.925,-6.08,5.));
#1496 = VECTOR('',#1497,1.);
#1497 = DIRECTION('',(1.,0.,-0.));
#1498 = ORIENTED_EDGE('',*,*,#1119,.T.);
#1499 = ORIENTED_EDGE('',*,*,#1440,.F.);
#1500 = ORIENTED_EDGE('',*,*,#477,.F.);
#1501 = ORIENTED_EDGE('',*,*,#1502,.F.);
#1502 = EDGE_CURVE('',#794,#470,#1503,.T.);
#1503 = LINE('',#1504,#1505);
#1504 = CARTESIAN_POINT('',(10.975,-6.08,5.));
#1505 = VECTOR('',#1506,1.);
#1506 = DIRECTION('',(1.,0.,-0.));
#1507 = ORIENTED_EDGE('',*,*,#801,.T.);
#1508 = PLANE('',#1509);
#1509 = AXIS2_PLACEMENT_3D('',#1510,#1511,#1512);
#1510 = CARTESIAN_POINT('',(8.,-6.08,4.));
#1511 = DIRECTION('',(-0.,1.,0.));
#1512 = DIRECTION('',(0.,0.,1.));
#1513 = ADVANCED_FACE('',(#1514),#1525,.F.);
#1514 = FACE_BOUND('',#1515,.F.);
#1515 = EDGE_LOOP('',(#1516,#1517,#1518,#1519));
#1516 = ORIENTED_EDGE('',*,*,#793,.F.);
#1517 = ORIENTED_EDGE('',*,*,#1502,.T.);
#1518 = ORIENTED_EDGE('',*,*,#469,.T.);
#1519 = ORIENTED_EDGE('',*,*,#1520,.F.);
#1520 = EDGE_CURVE('',#786,#462,#1521,.T.);
#1521 = LINE('',#1522,#1523);
#1522 = CARTESIAN_POINT('',(10.975,-4.08,5.));
#1523 = VECTOR('',#1524,1.);
#1524 = DIRECTION('',(1.,0.,-0.));
#1525 = PLANE('',#1526);
#1526 = AXIS2_PLACEMENT_3D('',#1527,#1528,#1529);
#1527 = CARTESIAN_POINT('',(13.95,-16.,5.));
#1528 = DIRECTION('',(0.,0.,1.));
#1529 = DIRECTION('',(1.,0.,-0.));
#1530 = ADVANCED_FACE('',(#1531),#1588,.T.);
#1531 = FACE_BOUND('',#1532,.T.);
#1532 = EDGE_LOOP('',(#1533,#1541,#1549,#1557,#1565,#1571,#1572,#1578,
    #1579,#1585,#1586,#1587));
#1533 = ORIENTED_EDGE('',*,*,#1534,.F.);
#1534 = EDGE_CURVE('',#1535,#778,#1537,.T.);
#1535 = VERTEX_POINT('',#1536);
#1536 = CARTESIAN_POINT('',(8.,-4.08,4.));
#1537 = LINE('',#1538,#1539);
#1538 = CARTESIAN_POINT('',(8.,-4.08,4.));
#1539 = VECTOR('',#1540,1.);
#1540 = DIRECTION('',(1.,0.,-0.));
#1541 = ORIENTED_EDGE('',*,*,#1542,.T.);
#1542 = EDGE_CURVE('',#1535,#1543,#1545,.T.);
#1543 = VERTEX_POINT('',#1544);
#1544 = CARTESIAN_POINT('',(8.,-4.08,14.));
#1545 = LINE('',#1546,#1547);
#1546 = CARTESIAN_POINT('',(8.,-4.08,4.));
#1547 = VECTOR('',#1548,1.);
#1548 = DIRECTION('',(0.,0.,1.));
#1549 = ORIENTED_EDGE('',*,*,#1550,.T.);
#1550 = EDGE_CURVE('',#1543,#1551,#1553,.T.);
#1551 = VERTEX_POINT('',#1552);
#1552 = CARTESIAN_POINT('',(49.8,-4.08,14.));
#1553 = LINE('',#1554,#1555);
#1554 = CARTESIAN_POINT('',(8.,-4.08,14.));
#1555 = VECTOR('',#1556,1.);
#1556 = DIRECTION('',(1.,0.,-0.));
#1557 = ORIENTED_EDGE('',*,*,#1558,.F.);
#1558 = EDGE_CURVE('',#1559,#1551,#1561,.T.);
#1559 = VERTEX_POINT('',#1560);
#1560 = CARTESIAN_POINT('',(49.8,-4.08,4.));
#1561 = LINE('',#1562,#1563);
#1562 = CARTESIAN_POINT('',(49.8,-4.08,4.));
#1563 = VECTOR('',#1564,1.);
#1564 = DIRECTION('',(0.,0.,1.));
#1565 = ORIENTED_EDGE('',*,*,#1566,.F.);
#1566 = EDGE_CURVE('',#948,#1559,#1567,.T.);
#1567 = LINE('',#1568,#1569);
#1568 = CARTESIAN_POINT('',(8.,-4.08,4.));
#1569 = VECTOR('',#1570,1.);
#1570 = DIRECTION('',(1.,0.,-0.));
#1571 = ORIENTED_EDGE('',*,*,#955,.F.);
#1572 = ORIENTED_EDGE('',*,*,#1573,.F.);
#1573 = EDGE_CURVE('',#1104,#956,#1574,.T.);
#1574 = LINE('',#1575,#1576);
#1575 = CARTESIAN_POINT('',(23.925,-4.08,5.));
#1576 = VECTOR('',#1577,1.);
#1577 = DIRECTION('',(1.,0.,-0.));
#1578 = ORIENTED_EDGE('',*,*,#1103,.T.);
#1579 = ORIENTED_EDGE('',*,*,#1580,.F.);
#1580 = EDGE_CURVE('',#454,#1096,#1581,.T.);
#1581 = LINE('',#1582,#1583);
#1582 = CARTESIAN_POINT('',(8.,-4.08,4.));
#1583 = VECTOR('',#1584,1.);
#1584 = DIRECTION('',(1.,0.,-0.));
#1585 = ORIENTED_EDGE('',*,*,#461,.F.);
#1586 = ORIENTED_EDGE('',*,*,#1520,.F.);
#1587 = ORIENTED_EDGE('',*,*,#785,.T.);
#1588 = PLANE('',#1589);
#1589 = AXIS2_PLACEMENT_3D('',#1590,#1591,#1592);
#1590 = CARTESIAN_POINT('',(8.,-4.08,4.));
#1591 = DIRECTION('',(-0.,1.,0.));
#1592 = DIRECTION('',(0.,0.,1.));
#1593 = ADVANCED_FACE('',(#1594),#1605,.T.);
#1594 = FACE_BOUND('',#1595,.T.);
#1595 = EDGE_LOOP('',(#1596,#1597,#1598,#1604));
#1596 = ORIENTED_EDGE('',*,*,#1580,.T.);
#1597 = ORIENTED_EDGE('',*,*,#1095,.T.);
#1598 = ORIENTED_EDGE('',*,*,#1599,.F.);
#1599 = EDGE_CURVE('',#446,#1088,#1600,.T.);
#1600 = LINE('',#1601,#1602);
#1601 = CARTESIAN_POINT('',(8.,4.08,4.));
#1602 = VECTOR('',#1603,1.);
#1603 = DIRECTION('',(1.,0.,-0.));
#1604 = ORIENTED_EDGE('',*,*,#453,.F.);
#1605 = PLANE('',#1606);
#1606 = AXIS2_PLACEMENT_3D('',#1607,#1608,#1609);
#1607 = CARTESIAN_POINT('',(0.,-22.,4.));
#1608 = DIRECTION('',(0.,0.,1.));
#1609 = DIRECTION('',(1.,0.,-0.));
#1610 = ADVANCED_FACE('',(#1611),#1668,.F.);
#1611 = FACE_BOUND('',#1612,.F.);
#1612 = EDGE_LOOP('',(#1613,#1621,#1629,#1637,#1645,#1651,#1652,#1658,
    #1659,#1660,#1661,#1667));
#1613 = ORIENTED_EDGE('',*,*,#1614,.F.);
#1614 = EDGE_CURVE('',#1615,#770,#1617,.T.);
#1615 = VERTEX_POINT('',#1616);
#1616 = CARTESIAN_POINT('',(8.,4.08,4.));
#1617 = LINE('',#1618,#1619);
#1618 = CARTESIAN_POINT('',(8.,4.08,4.));
#1619 = VECTOR('',#1620,1.);
#1620 = DIRECTION('',(1.,0.,-0.));
#1621 = ORIENTED_EDGE('',*,*,#1622,.T.);
#1622 = EDGE_CURVE('',#1615,#1623,#1625,.T.);
#1623 = VERTEX_POINT('',#1624);
#1624 = CARTESIAN_POINT('',(8.,4.08,14.));
#1625 = LINE('',#1626,#1627);
#1626 = CARTESIAN_POINT('',(8.,4.08,4.));
#1627 = VECTOR('',#1628,1.);
#1628 = DIRECTION('',(0.,0.,1.));
#1629 = ORIENTED_EDGE('',*,*,#1630,.T.);
#1630 = EDGE_CURVE('',#1623,#1631,#1633,.T.);
#1631 = VERTEX_POINT('',#1632);
#1632 = CARTESIAN_POINT('',(49.8,4.08,14.));
#1633 = LINE('',#1634,#1635);
#1634 = CARTESIAN_POINT('',(8.,4.08,14.));
#1635 = VECTOR('',#1636,1.);
#1636 = DIRECTION('',(1.,0.,-0.));
#1637 = ORIENTED_EDGE('',*,*,#1638,.F.);
#1638 = EDGE_CURVE('',#1639,#1631,#1641,.T.);
#1639 = VERTEX_POINT('',#1640);
#1640 = CARTESIAN_POINT('',(49.8,4.08,4.));
#1641 = LINE('',#1642,#1643);
#1642 = CARTESIAN_POINT('',(49.8,4.08,4.));
#1643 = VECTOR('',#1644,1.);
#1644 = DIRECTION('',(0.,0.,1.));
#1645 = ORIENTED_EDGE('',*,*,#1646,.F.);
#1646 = EDGE_CURVE('',#940,#1639,#1647,.T.);
#1647 = LINE('',#1648,#1649);
#1648 = CARTESIAN_POINT('',(8.,4.08,4.));
#1649 = VECTOR('',#1650,1.);
#1650 = DIRECTION('',(1.,0.,-0.));
#1651 = ORIENTED_EDGE('',*,*,#939,.F.);
#1652 = ORIENTED_EDGE('',*,*,#1653,.F.);
#1653 = EDGE_CURVE('',#1080,#932,#1654,.T.);
#1654 = LINE('',#1655,#1656);
#1655 = CARTESIAN_POINT('',(23.925,4.08,5.));
#1656 = VECTOR('',#1657,1.);
#1657 = DIRECTION('',(1.,0.,-0.));
#1658 = ORIENTED_EDGE('',*,*,#1087,.T.);
#1659 = ORIENTED_EDGE('',*,*,#1599,.F.);
#1660 = ORIENTED_EDGE('',*,*,#445,.F.);
#1661 = ORIENTED_EDGE('',*,*,#1662,.F.);
#1662 = EDGE_CURVE('',#762,#438,#1663,.T.);
#1663 = LINE('',#1664,#1665);
#1664 = CARTESIAN_POINT('',(10.975,4.08,5.));
#1665 = VECTOR('',#1666,1.);
#1666 = DIRECTION('',(1.,0.,-0.));
#1667 = ORIENTED_EDGE('',*,*,#769,.T.);
#1668 = PLANE('',#1669);
#1669 = AXIS2_PLACEMENT_3D('',#1670,#1671,#1672);
#1670 = CARTESIAN_POINT('',(8.,4.08,4.));
#1671 = DIRECTION('',(-0.,1.,0.));
#1672 = DIRECTION('',(0.,0.,1.));
#1673 = ADVANCED_FACE('',(#1674),#1685,.F.);
#1674 = FACE_BOUND('',#1675,.F.);
#1675 = EDGE_LOOP('',(#1676,#1677,#1678,#1679));
#1676 = ORIENTED_EDGE('',*,*,#761,.F.);
#1677 = ORIENTED_EDGE('',*,*,#1662,.T.);
#1678 = ORIENTED_EDGE('',*,*,#437,.T.);
#1679 = ORIENTED_EDGE('',*,*,#1680,.F.);
#1680 = EDGE_CURVE('',#754,#430,#1681,.T.);
#1681 = LINE('',#1682,#1683);
#1682 = CARTESIAN_POINT('',(10.975,6.08,5.));
#1683 = VECTOR('',#1684,1.);
#1684 = DIRECTION('',(1.,0.,-0.));
#1685 = PLANE('',#1686);
#1686 = AXIS2_PLACEMENT_3D('',#1687,#1688,#1689);
#1687 = CARTESIAN_POINT('',(13.95,-16.,5.));
#1688 = DIRECTION('',(0.,0.,1.));
#1689 = DIRECTION('',(1.,0.,-0.));
#1690 = ADVANCED_FACE('',(#1691),#1748,.T.);
#1691 = FACE_BOUND('',#1692,.T.);
#1692 = EDGE_LOOP('',(#1693,#1701,#1709,#1717,#1725,#1731,#1732,#1738,
    #1739,#1745,#1746,#1747));
#1693 = ORIENTED_EDGE('',*,*,#1694,.F.);
#1694 = EDGE_CURVE('',#1695,#746,#1697,.T.);
#1695 = VERTEX_POINT('',#1696);
#1696 = CARTESIAN_POINT('',(8.,6.08,4.));
#1697 = LINE('',#1698,#1699);
#1698 = CARTESIAN_POINT('',(8.,6.08,4.));
#1699 = VECTOR('',#1700,1.);
#1700 = DIRECTION('',(1.,0.,-0.));
#1701 = ORIENTED_EDGE('',*,*,#1702,.T.);
#1702 = EDGE_CURVE('',#1695,#1703,#1705,.T.);
#1703 = VERTEX_POINT('',#1704);
#1704 = CARTESIAN_POINT('',(8.,6.08,14.));
#1705 = LINE('',#1706,#1707);
#1706 = CARTESIAN_POINT('',(8.,6.08,4.));
#1707 = VECTOR('',#1708,1.);
#1708 = DIRECTION('',(0.,0.,1.));
#1709 = ORIENTED_EDGE('',*,*,#1710,.T.);
#1710 = EDGE_CURVE('',#1703,#1711,#1713,.T.);
#1711 = VERTEX_POINT('',#1712);
#1712 = CARTESIAN_POINT('',(49.8,6.08,14.));
#1713 = LINE('',#1714,#1715);
#1714 = CARTESIAN_POINT('',(8.,6.08,14.));
#1715 = VECTOR('',#1716,1.);
#1716 = DIRECTION('',(1.,0.,-0.));
#1717 = ORIENTED_EDGE('',*,*,#1718,.F.);
#1718 = EDGE_CURVE('',#1719,#1711,#1721,.T.);
#1719 = VERTEX_POINT('',#1720);
#1720 = CARTESIAN_POINT('',(49.8,6.08,4.));
#1721 = LINE('',#1722,#1723);
#1722 = CARTESIAN_POINT('',(49.8,6.08,4.));
#1723 = VECTOR('',#1724,1.);
#1724 = DIRECTION('',(0.,0.,1.));
#1725 = ORIENTED_EDGE('',*,*,#1726,.F.);
#1726 = EDGE_CURVE('',#916,#1719,#1727,.T.);
#1727 = LINE('',#1728,#1729);
#1728 = CARTESIAN_POINT('',(8.,6.08,4.));
#1729 = VECTOR('',#1730,1.);
#1730 = DIRECTION('',(1.,0.,-0.));
#1731 = ORIENTED_EDGE('',*,*,#923,.F.);
#1732 = ORIENTED_EDGE('',*,*,#1733,.F.);
#1733 = EDGE_CURVE('',#1072,#924,#1734,.T.);
#1734 = LINE('',#1735,#1736);
#1735 = CARTESIAN_POINT('',(23.925,6.08,5.));
#1736 = VECTOR('',#1737,1.);
#1737 = DIRECTION('',(1.,0.,-0.));
#1738 = ORIENTED_EDGE('',*,*,#1071,.T.);
#1739 = ORIENTED_EDGE('',*,*,#1740,.F.);
#1740 = EDGE_CURVE('',#422,#1064,#1741,.T.);
#1741 = LINE('',#1742,#1743);
#1742 = CARTESIAN_POINT('',(8.,6.08,4.));
#1743 = VECTOR('',#1744,1.);
#1744 = DIRECTION('',(1.,0.,-0.));
#1745 = ORIENTED_EDGE('',*,*,#429,.F.);
#1746 = ORIENTED_EDGE('',*,*,#1680,.F.);
#1747 = ORIENTED_EDGE('',*,*,#753,.T.);
#1748 = PLANE('',#1749);
#1749 = AXIS2_PLACEMENT_3D('',#1750,#1751,#1752);
#1750 = CARTESIAN_POINT('',(8.,6.08,4.));
#1751 = DIRECTION('',(-0.,1.,0.));
#1752 = DIRECTION('',(0.,0.,1.));
#1753 = ADVANCED_FACE('',(#1754),#1765,.T.);
#1754 = FACE_BOUND('',#1755,.T.);
#1755 = EDGE_LOOP('',(#1756,#1757,#1763,#1764));
#1756 = ORIENTED_EDGE('',*,*,#1063,.T.);
#1757 = ORIENTED_EDGE('',*,*,#1758,.F.);
#1758 = EDGE_CURVE('',#414,#1056,#1759,.T.);
#1759 = LINE('',#1760,#1761);
#1760 = CARTESIAN_POINT('',(2.5,13.2,4.));
#1761 = VECTOR('',#1762,1.);
#1762 = DIRECTION('',(1.,0.,-0.));
#1763 = ORIENTED_EDGE('',*,*,#421,.F.);
#1764 = ORIENTED_EDGE('',*,*,#1740,.T.);
#1765 = PLANE('',#1766);
#1766 = AXIS2_PLACEMENT_3D('',#1767,#1768,#1769);
#1767 = CARTESIAN_POINT('',(0.,-22.,4.));
#1768 = DIRECTION('',(0.,0.,1.));
#1769 = DIRECTION('',(1.,0.,-0.));
#1770 = ADVANCED_FACE('',(#1771),#1828,.F.);
#1771 = FACE_BOUND('',#1772,.F.);
#1772 = EDGE_LOOP('',(#1773,#1783,#1789,#1790,#1796,#1797,#1798,#1799,
    #1805,#1806,#1814,#1822));
#1773 = ORIENTED_EDGE('',*,*,#1774,.F.);
#1774 = EDGE_CURVE('',#1775,#1777,#1779,.T.);
#1775 = VERTEX_POINT('',#1776);
#1776 = CARTESIAN_POINT('',(55.3,13.2,4.));
#1777 = VERTEX_POINT('',#1778);
#1778 = CARTESIAN_POINT('',(55.3,13.2,17.99));
#1779 = LINE('',#1780,#1781);
#1780 = CARTESIAN_POINT('',(55.3,13.2,4.));
#1781 = VECTOR('',#1782,1.);
#1782 = DIRECTION('',(0.,0.,1.));
#1783 = ORIENTED_EDGE('',*,*,#1784,.F.);
#1784 = EDGE_CURVE('',#908,#1775,#1785,.T.);
#1785 = LINE('',#1786,#1787);
#1786 = CARTESIAN_POINT('',(2.5,13.2,4.));
#1787 = VECTOR('',#1788,1.);
#1788 = DIRECTION('',(1.,0.,-0.));
#1789 = ORIENTED_EDGE('',*,*,#907,.F.);
#1790 = ORIENTED_EDGE('',*,*,#1791,.F.);
#1791 = EDGE_CURVE('',#1048,#900,#1792,.T.);
#1792 = LINE('',#1793,#1794);
#1793 = CARTESIAN_POINT('',(21.175,13.2,5.));
#1794 = VECTOR('',#1795,1.);
#1795 = DIRECTION('',(1.,0.,-0.));
#1796 = ORIENTED_EDGE('',*,*,#1055,.T.);
#1797 = ORIENTED_EDGE('',*,*,#1758,.F.);
#1798 = ORIENTED_EDGE('',*,*,#413,.F.);
#1799 = ORIENTED_EDGE('',*,*,#1800,.F.);
#1800 = EDGE_CURVE('',#730,#406,#1801,.T.);
#1801 = LINE('',#1802,#1803);
#1802 = CARTESIAN_POINT('',(8.225,13.2,5.));
#1803 = VECTOR('',#1804,1.);
#1804 = DIRECTION('',(1.,0.,-0.));
#1805 = ORIENTED_EDGE('',*,*,#737,.T.);
#1806 = ORIENTED_EDGE('',*,*,#1807,.F.);
#1807 = EDGE_CURVE('',#1808,#738,#1810,.T.);
#1808 = VERTEX_POINT('',#1809);
#1809 = CARTESIAN_POINT('',(2.5,13.2,4.));
#1810 = LINE('',#1811,#1812);
#1811 = CARTESIAN_POINT('',(2.5,13.2,4.));
#1812 = VECTOR('',#1813,1.);
#1813 = DIRECTION('',(1.,0.,-0.));
#1814 = ORIENTED_EDGE('',*,*,#1815,.T.);
#1815 = EDGE_CURVE('',#1808,#1816,#1818,.T.);
#1816 = VERTEX_POINT('',#1817);
#1817 = CARTESIAN_POINT('',(2.5,13.2,17.99));
#1818 = LINE('',#1819,#1820);
#1819 = CARTESIAN_POINT('',(2.5,13.2,4.));
#1820 = VECTOR('',#1821,1.);
#1821 = DIRECTION('',(0.,0.,1.));
#1822 = ORIENTED_EDGE('',*,*,#1823,.F.);
#1823 = EDGE_CURVE('',#1777,#1816,#1824,.T.);
#1824 = LINE('',#1825,#1826);
#1825 = CARTESIAN_POINT('',(1.25,13.2,17.99));
#1826 = VECTOR('',#1827,1.);
#1827 = DIRECTION('',(-1.,-0.,0.));
#1828 = PLANE('',#1829);
#1829 = AXIS2_PLACEMENT_3D('',#1830,#1831,#1832);
#1830 = CARTESIAN_POINT('',(2.5,13.2,4.));
#1831 = DIRECTION('',(-0.,1.,0.));
#1832 = DIRECTION('',(0.,0.,1.));
#1833 = ADVANCED_FACE('',(#1834),#1840,.F.);
#1834 = FACE_BOUND('',#1835,.F.);
#1835 = EDGE_LOOP('',(#1836,#1837,#1838,#1839));
#1836 = ORIENTED_EDGE('',*,*,#729,.F.);
#1837 = ORIENTED_EDGE('',*,*,#1800,.T.);
#1838 = ORIENTED_EDGE('',*,*,#405,.T.);
#1839 = ORIENTED_EDGE('',*,*,#1265,.F.);
#1840 = PLANE('',#1841);
#1841 = AXIS2_PLACEMENT_3D('',#1842,#1843,#1844);
#1842 = CARTESIAN_POINT('',(13.95,-16.,5.));
#1843 = DIRECTION('',(0.,0.,1.));
#1844 = DIRECTION('',(1.,0.,-0.));
#1845 = ADVANCED_FACE('',(#1846),#1875,.T.);
#1846 = FACE_BOUND('',#1847,.T.);
#1847 = EDGE_LOOP('',(#1848,#1854,#1855,#1856,#1857,#1863,#1864,#1865,
    #1866,#1872,#1873,#1874));
#1848 = ORIENTED_EDGE('',*,*,#1849,.F.);
#1849 = EDGE_CURVE('',#1408,#1808,#1850,.T.);
#1850 = LINE('',#1851,#1852);
#1851 = CARTESIAN_POINT('',(2.5,-13.2,4.));
#1852 = VECTOR('',#1853,1.);
#1853 = DIRECTION('',(-0.,1.,0.));
#1854 = ORIENTED_EDGE('',*,*,#1407,.T.);
#1855 = ORIENTED_EDGE('',*,*,#809,.T.);
#1856 = ORIENTED_EDGE('',*,*,#1454,.F.);
#1857 = ORIENTED_EDGE('',*,*,#1858,.T.);
#1858 = EDGE_CURVE('',#1455,#1535,#1859,.T.);
#1859 = LINE('',#1860,#1861);
#1860 = CARTESIAN_POINT('',(8.,-6.08,4.));
#1861 = VECTOR('',#1862,1.);
#1862 = DIRECTION('',(-0.,1.,0.));
#1863 = ORIENTED_EDGE('',*,*,#1534,.T.);
#1864 = ORIENTED_EDGE('',*,*,#777,.T.);
#1865 = ORIENTED_EDGE('',*,*,#1614,.F.);
#1866 = ORIENTED_EDGE('',*,*,#1867,.T.);
#1867 = EDGE_CURVE('',#1615,#1695,#1868,.T.);
#1868 = LINE('',#1869,#1870);
#1869 = CARTESIAN_POINT('',(8.,4.08,4.));
#1870 = VECTOR('',#1871,1.);
#1871 = DIRECTION('',(-0.,1.,0.));
#1872 = ORIENTED_EDGE('',*,*,#1694,.T.);
#1873 = ORIENTED_EDGE('',*,*,#745,.T.);
#1874 = ORIENTED_EDGE('',*,*,#1807,.F.);
#1875 = PLANE('',#1876);
#1876 = AXIS2_PLACEMENT_3D('',#1877,#1878,#1879);
#1877 = CARTESIAN_POINT('',(0.,-22.,4.));
#1878 = DIRECTION('',(0.,0.,1.));
#1879 = DIRECTION('',(1.,0.,-0.));
#1880 = ADVANCED_FACE('',(#1881),#1887,.F.);
#1881 = FACE_BOUND('',#1882,.F.);
#1882 = EDGE_LOOP('',(#1883,#1884,#1885,#1886));
#1883 = ORIENTED_EDGE('',*,*,#1143,.F.);
#1884 = ORIENTED_EDGE('',*,*,#1207,.T.);
#1885 = ORIENTED_EDGE('',*,*,#995,.T.);
#1886 = ORIENTED_EDGE('',*,*,#1391,.F.);
#1887 = PLANE('',#1888);
#1888 = AXIS2_PLACEMENT_3D('',#1889,#1890,#1891);
#1889 = CARTESIAN_POINT('',(39.85,-16.,5.));
#1890 = DIRECTION('',(0.,0.,1.));
#1891 = DIRECTION('',(1.,0.,-0.));
#1892 = ADVANCED_FACE('',(#1893),#1922,.T.);
#1893 = FACE_BOUND('',#1894,.T.);
#1894 = EDGE_LOOP('',(#1895,#1896,#1897,#1903,#1904,#1905,#1906,#1912,
    #1913,#1914,#1915,#1921));
#1895 = ORIENTED_EDGE('',*,*,#979,.F.);
#1896 = ORIENTED_EDGE('',*,*,#1384,.T.);
#1897 = ORIENTED_EDGE('',*,*,#1898,.T.);
#1898 = EDGE_CURVE('',#1375,#1775,#1899,.T.);
#1899 = LINE('',#1900,#1901);
#1900 = CARTESIAN_POINT('',(55.3,-13.2,4.));
#1901 = VECTOR('',#1902,1.);
#1902 = DIRECTION('',(-0.,1.,0.));
#1903 = ORIENTED_EDGE('',*,*,#1784,.F.);
#1904 = ORIENTED_EDGE('',*,*,#915,.F.);
#1905 = ORIENTED_EDGE('',*,*,#1726,.T.);
#1906 = ORIENTED_EDGE('',*,*,#1907,.F.);
#1907 = EDGE_CURVE('',#1639,#1719,#1908,.T.);
#1908 = LINE('',#1909,#1910);
#1909 = CARTESIAN_POINT('',(49.8,4.08,4.));
#1910 = VECTOR('',#1911,1.);
#1911 = DIRECTION('',(-0.,1.,0.));
#1912 = ORIENTED_EDGE('',*,*,#1646,.F.);
#1913 = ORIENTED_EDGE('',*,*,#947,.F.);
#1914 = ORIENTED_EDGE('',*,*,#1566,.T.);
#1915 = ORIENTED_EDGE('',*,*,#1916,.F.);
#1916 = EDGE_CURVE('',#1479,#1559,#1917,.T.);
#1917 = LINE('',#1918,#1919);
#1918 = CARTESIAN_POINT('',(49.8,-6.08,4.));
#1919 = VECTOR('',#1920,1.);
#1920 = DIRECTION('',(-0.,1.,0.));
#1921 = ORIENTED_EDGE('',*,*,#1486,.F.);
#1922 = PLANE('',#1923);
#1923 = AXIS2_PLACEMENT_3D('',#1924,#1925,#1926);
#1924 = CARTESIAN_POINT('',(0.,-22.,4.));
#1925 = DIRECTION('',(0.,0.,1.));
#1926 = DIRECTION('',(1.,0.,-0.));
#1927 = ADVANCED_FACE('',(#1928),#1934,.F.);
#1928 = FACE_BOUND('',#1929,.F.);
#1929 = EDGE_LOOP('',(#1930,#1931,#1932,#1933));
#1930 = ORIENTED_EDGE('',*,*,#1111,.F.);
#1931 = ORIENTED_EDGE('',*,*,#1493,.T.);
#1932 = ORIENTED_EDGE('',*,*,#963,.T.);
#1933 = ORIENTED_EDGE('',*,*,#1573,.F.);
#1934 = PLANE('',#1935);
#1935 = AXIS2_PLACEMENT_3D('',#1936,#1937,#1938);
#1936 = CARTESIAN_POINT('',(39.85,-16.,5.));
#1937 = DIRECTION('',(0.,0.,1.));
#1938 = DIRECTION('',(1.,0.,-0.));
#1939 = ADVANCED_FACE('',(#1940),#1946,.F.);
#1940 = FACE_BOUND('',#1941,.F.);
#1941 = EDGE_LOOP('',(#1942,#1943,#1944,#1945));
#1942 = ORIENTED_EDGE('',*,*,#1079,.F.);
#1943 = ORIENTED_EDGE('',*,*,#1653,.T.);
#1944 = ORIENTED_EDGE('',*,*,#931,.T.);
#1945 = ORIENTED_EDGE('',*,*,#1733,.F.);
#1946 = PLANE('',#1947);
#1947 = AXIS2_PLACEMENT_3D('',#1948,#1949,#1950);
#1948 = CARTESIAN_POINT('',(39.85,-16.,5.));
#1949 = DIRECTION('',(0.,0.,1.));
#1950 = DIRECTION('',(1.,0.,-0.));
#1951 = ADVANCED_FACE('',(#1952),#1958,.F.);
#1952 = FACE_BOUND('',#1953,.F.);
#1953 = EDGE_LOOP('',(#1954,#1955,#1956,#1957));
#1954 = ORIENTED_EDGE('',*,*,#1047,.F.);
#1955 = ORIENTED_EDGE('',*,*,#1791,.T.);
#1956 = ORIENTED_EDGE('',*,*,#899,.T.);
#1957 = ORIENTED_EDGE('',*,*,#1256,.F.);
#1958 = PLANE('',#1959);
#1959 = AXIS2_PLACEMENT_3D('',#1960,#1961,#1962);
#1960 = CARTESIAN_POINT('',(39.85,-16.,5.));
#1961 = DIRECTION('',(0.,0.,1.));
#1962 = DIRECTION('',(1.,0.,-0.));
#1963 = ADVANCED_FACE('',(#1964,#1980),#1996,.T.);
#1964 = FACE_BOUND('',#1965,.T.);
#1965 = EDGE_LOOP('',(#1966,#1972,#1973,#1979));
#1966 = ORIENTED_EDGE('',*,*,#1967,.F.);
#1967 = EDGE_CURVE('',#1225,#1274,#1968,.T.);
#1968 = LINE('',#1969,#1970);
#1969 = CARTESIAN_POINT('',(0.,-15.7,17.99));
#1970 = VECTOR('',#1971,1.);
#1971 = DIRECTION('',(-0.,1.,0.));
#1972 = ORIENTED_EDGE('',*,*,#1232,.T.);
#1973 = ORIENTED_EDGE('',*,*,#1974,.T.);
#1974 = EDGE_CURVE('',#1198,#1247,#1975,.T.);
#1975 = LINE('',#1976,#1977);
#1976 = CARTESIAN_POINT('',(57.8,-15.7,17.99));
#1977 = VECTOR('',#1978,1.);
#1978 = DIRECTION('',(-0.,1.,0.));
#1979 = ORIENTED_EDGE('',*,*,#1281,.F.);
#1980 = FACE_BOUND('',#1981,.T.);
#1981 = EDGE_LOOP('',(#1982,#1983,#1989,#1990));
#1982 = ORIENTED_EDGE('',*,*,#1423,.T.);
#1983 = ORIENTED_EDGE('',*,*,#1984,.T.);
#1984 = EDGE_CURVE('',#1416,#1816,#1985,.T.);
#1985 = LINE('',#1986,#1987);
#1986 = CARTESIAN_POINT('',(2.5,-14.45,17.99));
#1987 = VECTOR('',#1988,1.);
#1988 = DIRECTION('',(-0.,1.,0.));
#1989 = ORIENTED_EDGE('',*,*,#1823,.F.);
#1990 = ORIENTED_EDGE('',*,*,#1991,.F.);
#1991 = EDGE_CURVE('',#1377,#1777,#1992,.T.);
#1992 = LINE('',#1993,#1994);
#1993 = CARTESIAN_POINT('',(55.3,-14.45,17.99));
#1994 = VECTOR('',#1995,1.);
#1995 = DIRECTION('',(-0.,1.,0.));
#1996 = PLANE('',#1997);
#1997 = AXIS2_PLACEMENT_3D('',#1998,#1999,#2000);
#1998 = CARTESIAN_POINT('',(0.,-15.7,17.99));
#1999 = DIRECTION('',(0.,0.,1.));
#2000 = DIRECTION('',(1.,0.,-0.));
#2001 = ADVANCED_FACE('',(#2002),#2027,.F.);
#2002 = FACE_BOUND('',#2003,.F.);
#2003 = EDGE_LOOP('',(#2004,#2014,#2020,#2021));
#2004 = ORIENTED_EDGE('',*,*,#2005,.F.);
#2005 = EDGE_CURVE('',#2006,#2008,#2010,.T.);
#2006 = VERTEX_POINT('',#2007);
#2007 = CARTESIAN_POINT('',(0.,14.5,-3.3));
#2008 = VERTEX_POINT('',#2009);
#2009 = CARTESIAN_POINT('',(57.8,14.5,-3.3));
#2010 = LINE('',#2011,#2012);
#2011 = CARTESIAN_POINT('',(0.,14.5,-3.3));
#2012 = VECTOR('',#2013,1.);
#2013 = DIRECTION('',(1.,0.,-0.));
#2014 = ORIENTED_EDGE('',*,*,#2015,.T.);
#2015 = EDGE_CURVE('',#2006,#1327,#2016,.T.);
#2016 = LINE('',#2017,#2018);
#2017 = CARTESIAN_POINT('',(0.,14.5,-3.3));
#2018 = VECTOR('',#2019,1.);
#2019 = DIRECTION('',(0.,0.,1.));
#2020 = ORIENTED_EDGE('',*,*,#1334,.T.);
#2021 = ORIENTED_EDGE('',*,*,#2022,.F.);
#2022 = EDGE_CURVE('',#2008,#1335,#2023,.T.);
#2023 = LINE('',#2024,#2025);
#2024 = CARTESIAN_POINT('',(57.8,14.5,-3.3));
#2025 = VECTOR('',#2026,1.);
#2026 = DIRECTION('',(0.,0.,1.));
#2027 = PLANE('',#2028);
#2028 = AXIS2_PLACEMENT_3D('',#2029,#2030,#2031);
#2029 = CARTESIAN_POINT('',(0.,14.5,-3.3));
#2030 = DIRECTION('',(-0.,1.,0.));
#2031 = DIRECTION('',(0.,0.,1.));
#2032 = ADVANCED_FACE('',(#2033),#2058,.T.);
#2033 = FACE_BOUND('',#2034,.T.);
#2034 = EDGE_LOOP('',(#2035,#2045,#2051,#2052));
#2035 = ORIENTED_EDGE('',*,*,#2036,.F.);
#2036 = EDGE_CURVE('',#2037,#2039,#2041,.T.);
#2037 = VERTEX_POINT('',#2038);
#2038 = CARTESIAN_POINT('',(0.,-14.5,-3.3));
#2039 = VERTEX_POINT('',#2040);
#2040 = CARTESIAN_POINT('',(57.8,-14.5,-3.3));
#2041 = LINE('',#2042,#2043);
#2042 = CARTESIAN_POINT('',(0.,-14.5,-3.3));
#2043 = VECTOR('',#2044,1.);
#2044 = DIRECTION('',(1.,0.,-0.));
#2045 = ORIENTED_EDGE('',*,*,#2046,.T.);
#2046 = EDGE_CURVE('',#2037,#1296,#2047,.T.);
#2047 = LINE('',#2048,#2049);
#2048 = CARTESIAN_POINT('',(0.,-14.5,-3.3));
#2049 = VECTOR('',#2050,1.);
#2050 = DIRECTION('',(0.,0.,1.));
#2051 = ORIENTED_EDGE('',*,*,#1312,.T.);
#2052 = ORIENTED_EDGE('',*,*,#2053,.F.);
#2053 = EDGE_CURVE('',#2039,#1305,#2054,.T.);
#2054 = LINE('',#2055,#2056);
#2055 = CARTESIAN_POINT('',(57.8,-14.5,-3.3));
#2056 = VECTOR('',#2057,1.);
#2057 = DIRECTION('',(0.,0.,1.));
#2058 = PLANE('',#2059);
#2059 = AXIS2_PLACEMENT_3D('',#2060,#2061,#2062);
#2060 = CARTESIAN_POINT('',(0.,-14.5,-3.3));
#2061 = DIRECTION('',(-0.,1.,0.));
#2062 = DIRECTION('',(0.,0.,1.));
#2063 = ADVANCED_FACE('',(#2064),#2070,.F.);
#2064 = FACE_BOUND('',#2065,.F.);
#2065 = EDGE_LOOP('',(#2066,#2067,#2068,#2069));
#2066 = ORIENTED_EDGE('',*,*,#1374,.F.);
#2067 = ORIENTED_EDGE('',*,*,#1898,.T.);
#2068 = ORIENTED_EDGE('',*,*,#1774,.T.);
#2069 = ORIENTED_EDGE('',*,*,#1991,.F.);
#2070 = PLANE('',#2071);
#2071 = AXIS2_PLACEMENT_3D('',#2072,#2073,#2074);
#2072 = CARTESIAN_POINT('',(55.3,-13.2,4.));
#2073 = DIRECTION('',(1.,0.,-0.));
#2074 = DIRECTION('',(0.,0.,1.));
#2075 = ADVANCED_FACE('',(#2076),#2082,.T.);
#2076 = FACE_BOUND('',#2077,.T.);
#2077 = EDGE_LOOP('',(#2078,#2079,#2080,#2081));
#2078 = ORIENTED_EDGE('',*,*,#1415,.F.);
#2079 = ORIENTED_EDGE('',*,*,#1849,.T.);
#2080 = ORIENTED_EDGE('',*,*,#1815,.T.);
#2081 = ORIENTED_EDGE('',*,*,#1984,.F.);
#2082 = PLANE('',#2083);
#2083 = AXIS2_PLACEMENT_3D('',#2084,#2085,#2086);
#2084 = CARTESIAN_POINT('',(2.5,-13.2,4.));
#2085 = DIRECTION('',(1.,0.,-0.));
#2086 = DIRECTION('',(0.,0.,1.));
#2087 = ADVANCED_FACE('',(#2088),#2099,.T.);
#2088 = FACE_BOUND('',#2089,.T.);
#2089 = EDGE_LOOP('',(#2090,#2091,#2092,#2093));
#2090 = ORIENTED_EDGE('',*,*,#1478,.F.);
#2091 = ORIENTED_EDGE('',*,*,#1916,.T.);
#2092 = ORIENTED_EDGE('',*,*,#1558,.T.);
#2093 = ORIENTED_EDGE('',*,*,#2094,.F.);
#2094 = EDGE_CURVE('',#1471,#1551,#2095,.T.);
#2095 = LINE('',#2096,#2097);
#2096 = CARTESIAN_POINT('',(49.8,-6.08,14.));
#2097 = VECTOR('',#2098,1.);
#2098 = DIRECTION('',(-0.,1.,0.));
#2099 = PLANE('',#2100);
#2100 = AXIS2_PLACEMENT_3D('',#2101,#2102,#2103);
#2101 = CARTESIAN_POINT('',(49.8,-6.08,4.));
#2102 = DIRECTION('',(1.,0.,-0.));
#2103 = DIRECTION('',(0.,0.,1.));
#2104 = ADVANCED_FACE('',(#2105),#2116,.T.);
#2105 = FACE_BOUND('',#2106,.T.);
#2106 = EDGE_LOOP('',(#2107,#2113,#2114,#2115));
#2107 = ORIENTED_EDGE('',*,*,#2108,.F.);
#2108 = EDGE_CURVE('',#1463,#1543,#2109,.T.);
#2109 = LINE('',#2110,#2111);
#2110 = CARTESIAN_POINT('',(8.,-6.08,14.));
#2111 = VECTOR('',#2112,1.);
#2112 = DIRECTION('',(-0.,1.,0.));
#2113 = ORIENTED_EDGE('',*,*,#1470,.T.);
#2114 = ORIENTED_EDGE('',*,*,#2094,.T.);
#2115 = ORIENTED_EDGE('',*,*,#1550,.F.);
#2116 = PLANE('',#2117);
#2117 = AXIS2_PLACEMENT_3D('',#2118,#2119,#2120);
#2118 = CARTESIAN_POINT('',(8.,-6.08,14.));
#2119 = DIRECTION('',(0.,0.,1.));
#2120 = DIRECTION('',(1.,0.,-0.));
#2121 = ADVANCED_FACE('',(#2122),#2128,.F.);
#2122 = FACE_BOUND('',#2123,.F.);
#2123 = EDGE_LOOP('',(#2124,#2125,#2126,#2127));
#2124 = ORIENTED_EDGE('',*,*,#1462,.F.);
#2125 = ORIENTED_EDGE('',*,*,#1858,.T.);
#2126 = ORIENTED_EDGE('',*,*,#1542,.T.);
#2127 = ORIENTED_EDGE('',*,*,#2108,.F.);
#2128 = PLANE('',#2129);
#2129 = AXIS2_PLACEMENT_3D('',#2130,#2131,#2132);
#2130 = CARTESIAN_POINT('',(8.,-6.08,4.));
#2131 = DIRECTION('',(1.,0.,-0.));
#2132 = DIRECTION('',(0.,0.,1.));
#2133 = ADVANCED_FACE('',(#2134),#2145,.T.);
#2134 = FACE_BOUND('',#2135,.T.);
#2135 = EDGE_LOOP('',(#2136,#2137,#2138,#2139));
#2136 = ORIENTED_EDGE('',*,*,#1638,.F.);
#2137 = ORIENTED_EDGE('',*,*,#1907,.T.);
#2138 = ORIENTED_EDGE('',*,*,#1718,.T.);
#2139 = ORIENTED_EDGE('',*,*,#2140,.F.);
#2140 = EDGE_CURVE('',#1631,#1711,#2141,.T.);
#2141 = LINE('',#2142,#2143);
#2142 = CARTESIAN_POINT('',(49.8,4.08,14.));
#2143 = VECTOR('',#2144,1.);
#2144 = DIRECTION('',(-0.,1.,0.));
#2145 = PLANE('',#2146);
#2146 = AXIS2_PLACEMENT_3D('',#2147,#2148,#2149);
#2147 = CARTESIAN_POINT('',(49.8,4.08,4.));
#2148 = DIRECTION('',(1.,0.,-0.));
#2149 = DIRECTION('',(0.,0.,1.));
#2150 = ADVANCED_FACE('',(#2151),#2162,.T.);
#2151 = FACE_BOUND('',#2152,.T.);
#2152 = EDGE_LOOP('',(#2153,#2159,#2160,#2161));
#2153 = ORIENTED_EDGE('',*,*,#2154,.F.);
#2154 = EDGE_CURVE('',#1623,#1703,#2155,.T.);
#2155 = LINE('',#2156,#2157);
#2156 = CARTESIAN_POINT('',(8.,4.08,14.));
#2157 = VECTOR('',#2158,1.);
#2158 = DIRECTION('',(-0.,1.,0.));
#2159 = ORIENTED_EDGE('',*,*,#1630,.T.);
#2160 = ORIENTED_EDGE('',*,*,#2140,.T.);
#2161 = ORIENTED_EDGE('',*,*,#1710,.F.);
#2162 = PLANE('',#2163);
#2163 = AXIS2_PLACEMENT_3D('',#2164,#2165,#2166);
#2164 = CARTESIAN_POINT('',(8.,4.08,14.));
#2165 = DIRECTION('',(0.,0.,1.));
#2166 = DIRECTION('',(1.,0.,-0.));
#2167 = ADVANCED_FACE('',(#2168),#2174,.F.);
#2168 = FACE_BOUND('',#2169,.F.);
#2169 = EDGE_LOOP('',(#2170,#2171,#2172,#2173));
#2170 = ORIENTED_EDGE('',*,*,#1622,.F.);
#2171 = ORIENTED_EDGE('',*,*,#1867,.T.);
#2172 = ORIENTED_EDGE('',*,*,#1702,.T.);
#2173 = ORIENTED_EDGE('',*,*,#2154,.F.);
#2174 = PLANE('',#2175);
#2175 = AXIS2_PLACEMENT_3D('',#2176,#2177,#2178);
#2176 = CARTESIAN_POINT('',(8.,4.08,4.));
#2177 = DIRECTION('',(1.,0.,-0.));
#2178 = DIRECTION('',(0.,0.,1.));
#2179 = ADVANCED_FACE('',(#2180),#2212,.T.);
#2180 = FACE_BOUND('',#2181,.T.);
#2181 = EDGE_LOOP('',(#2182,#2183,#2184,#2185,#2191,#2192,#2193,#2194,
    #2195,#2196,#2197,#2198,#2204,#2205,#2206,#2207,#2208,#2209,#2210,
    #2211));
#2182 = ORIENTED_EDGE('',*,*,#534,.F.);
#2183 = ORIENTED_EDGE('',*,*,#564,.F.);
#2184 = ORIENTED_EDGE('',*,*,#697,.F.);
#2185 = ORIENTED_EDGE('',*,*,#2186,.F.);
#2186 = EDGE_CURVE('',#2006,#690,#2187,.T.);
#2187 = LINE('',#2188,#2189);
#2188 = CARTESIAN_POINT('',(0.,17.8,-3.3));
#2189 = VECTOR('',#2190,1.);
#2190 = DIRECTION('',(-0.,1.,0.));
#2191 = ORIENTED_EDGE('',*,*,#2015,.T.);
#2192 = ORIENTED_EDGE('',*,*,#1326,.T.);
#2193 = ORIENTED_EDGE('',*,*,#364,.T.);
#2194 = ORIENTED_EDGE('',*,*,#218,.F.);
#2195 = ORIENTED_EDGE('',*,*,#333,.F.);
#2196 = ORIENTED_EDGE('',*,*,#1295,.T.);
#2197 = ORIENTED_EDGE('',*,*,#2046,.F.);
#2198 = ORIENTED_EDGE('',*,*,#2199,.F.);
#2199 = EDGE_CURVE('',#1175,#2037,#2200,.T.);
#2200 = LINE('',#2201,#2202);
#2201 = CARTESIAN_POINT('',(0.,-17.8,-3.3));
#2202 = VECTOR('',#2203,1.);
#2203 = DIRECTION('',(-0.,1.,0.));
#2204 = ORIENTED_EDGE('',*,*,#1182,.T.);
#2205 = ORIENTED_EDGE('',*,*,#21,.F.);
#2206 = ORIENTED_EDGE('',*,*,#62,.T.);
#2207 = ORIENTED_EDGE('',*,*,#92,.T.);
#2208 = ORIENTED_EDGE('',*,*,#1224,.T.);
#2209 = ORIENTED_EDGE('',*,*,#1967,.T.);
#2210 = ORIENTED_EDGE('',*,*,#1273,.F.);
#2211 = ORIENTED_EDGE('',*,*,#595,.T.);
#2212 = PLANE('',#2213);
#2213 = AXIS2_PLACEMENT_3D('',#2214,#2215,#2216);
#2214 = CARTESIAN_POINT('',(0.,-2.834988970981E-16,5.78724630935));
#2215 = DIRECTION('',(-1.,-0.,-0.));
#2216 = DIRECTION('',(0.,0.,-1.));
#2217 = ADVANCED_FACE('',(#2218),#2250,.T.);
#2218 = FACE_BOUND('',#2219,.T.);
#2219 = EDGE_LOOP('',(#2220,#2221,#2222,#2223,#2224,#2225,#2226,#2227,
    #2228,#2229,#2235,#2236,#2237,#2238,#2239,#2240,#2241,#2242,#2248,
    #2249));
#2220 = ORIENTED_EDGE('',*,*,#550,.T.);
#2221 = ORIENTED_EDGE('',*,*,#666,.F.);
#2222 = ORIENTED_EDGE('',*,*,#1246,.T.);
#2223 = ORIENTED_EDGE('',*,*,#1974,.F.);
#2224 = ORIENTED_EDGE('',*,*,#1197,.F.);
#2225 = ORIENTED_EDGE('',*,*,#101,.F.);
#2226 = ORIENTED_EDGE('',*,*,#78,.F.);
#2227 = ORIENTED_EDGE('',*,*,#39,.T.);
#2228 = ORIENTED_EDGE('',*,*,#1166,.F.);
#2229 = ORIENTED_EDGE('',*,*,#2230,.T.);
#2230 = EDGE_CURVE('',#1167,#2039,#2231,.T.);
#2231 = LINE('',#2232,#2233);
#2232 = CARTESIAN_POINT('',(57.8,-20.3,-3.3));
#2233 = VECTOR('',#2234,1.);
#2234 = DIRECTION('',(-0.,1.,0.));
#2235 = ORIENTED_EDGE('',*,*,#2053,.T.);
#2236 = ORIENTED_EDGE('',*,*,#1304,.F.);
#2237 = ORIENTED_EDGE('',*,*,#317,.T.);
#2238 = ORIENTED_EDGE('',*,*,#236,.T.);
#2239 = ORIENTED_EDGE('',*,*,#348,.F.);
#2240 = ORIENTED_EDGE('',*,*,#1342,.F.);
#2241 = ORIENTED_EDGE('',*,*,#2022,.F.);
#2242 = ORIENTED_EDGE('',*,*,#2243,.T.);
#2243 = EDGE_CURVE('',#2008,#682,#2244,.T.);
#2244 = LINE('',#2245,#2246);
#2245 = CARTESIAN_POINT('',(57.8,14.5,-3.3));
#2246 = VECTOR('',#2247,1.);
#2247 = DIRECTION('',(-0.,1.,0.));
#2248 = ORIENTED_EDGE('',*,*,#681,.T.);
#2249 = ORIENTED_EDGE('',*,*,#580,.T.);
#2250 = PLANE('',#2251);
#2251 = AXIS2_PLACEMENT_3D('',#2252,#2253,#2254);
#2252 = CARTESIAN_POINT('',(57.8,-6.851223346536E-16,5.78724630935));
#2253 = DIRECTION('',(1.,0.,0.));
#2254 = DIRECTION('',(-0.,0.,1.));
#2255 = ADVANCED_FACE('',(#2256),#2262,.T.);
#2256 = FACE_BOUND('',#2257,.T.);
#2257 = EDGE_LOOP('',(#2258,#2259,#2260,#2261));
#2258 = ORIENTED_EDGE('',*,*,#2186,.T.);
#2259 = ORIENTED_EDGE('',*,*,#689,.T.);
#2260 = ORIENTED_EDGE('',*,*,#2243,.F.);
#2261 = ORIENTED_EDGE('',*,*,#2005,.F.);
#2262 = PLANE('',#2263);
#2263 = AXIS2_PLACEMENT_3D('',#2264,#2265,#2266);
#2264 = CARTESIAN_POINT('',(28.9,17.4,-3.3));
#2265 = DIRECTION('',(-0.,-0.,-1.));
#2266 = DIRECTION('',(-1.,0.,0.));
#2267 = ADVANCED_FACE('',(#2268),#2274,.T.);
#2268 = FACE_BOUND('',#2269,.T.);
#2269 = EDGE_LOOP('',(#2270,#2271,#2272,#2273));
#2270 = ORIENTED_EDGE('',*,*,#2199,.T.);
#2271 = ORIENTED_EDGE('',*,*,#2036,.T.);
#2272 = ORIENTED_EDGE('',*,*,#2230,.F.);
#2273 = ORIENTED_EDGE('',*,*,#1174,.F.);
#2274 = PLANE('',#2275);
#2275 = AXIS2_PLACEMENT_3D('',#2276,#2277,#2278);
#2276 = CARTESIAN_POINT('',(28.9,-17.4,-3.3));
#2277 = DIRECTION('',(-0.,-0.,-1.));
#2278 = DIRECTION('',(-1.,0.,0.));
#2279 = ( GEOMETRIC_REPRESENTATION_CONTEXT(3) 
GLOBAL_UNCERTAINTY_ASSIGNED_CONTEXT((#2283)) 
GLOBAL_UNIT_ASSIGNED_CONTEXT((#2280,#2281,#2282)) REPRESENTATION_CONTEXT
('Context #1','3D Context with UNIT and UNCERTAINTY') );
#2280 = ( LENGTH_UNIT() NAMED_UNIT(*) SI_UNIT(.MILLI.,.METRE.) );
#2281 = ( NAMED_UNIT(*) PLANE_ANGLE_UNIT() SI_UNIT($,.RADIAN.) );
#2282 = ( NAMED_UNIT(*) SI_UNIT($,.STERADIAN.) SOLID_ANGLE_UNIT() );
#2283 = UNCERTAINTY_MEASURE_WITH_UNIT(LENGTH_MEASURE(1.E-07),#2280,
  'distance_accuracy_value','confusion accuracy');
#2284 = PRODUCT_RELATED_PRODUCT_CATEGORY('part',$,(#7));
ENDSEC;
END-ISO-10303-21;
